<?xml version="1.0" encoding="UTF-8" standalone="no"?>
<!-- Created with Inkscape (http://www.inkscape.org/) -->

<svg
   width="7"
   height="7"
   id="svg2"
   version="1.1"
   xmlns="http://www.w3.org/2000/svg"
   xmlns:svg="http://www.w3.org/2000/svg"
   xmlns:rdf="http://www.w3.org/1999/02/22-rdf-syntax-ns#"
   xmlns:cc="http://creativecommons.org/ns#"
   xmlns:dc="http://purl.org/dc/elements/1.1/">
  <defs
     id="defs4" />
  <metadata
     id="metadata7">
    <rdf:RDF>
      <cc:Work
         rdf:about="">
        <dc:format>image/svg+xml</dc:format>
        <dc:type
           rdf:resource="http://purl.org/dc/dcmitype/StillImage" />
        <dc:title />
      </cc:Work>
    </rdf:RDF>
  </metadata>
  <g
     id="layer1"
     transform="translate(0,-1045.3622)">
    <ellipse
       style="opacity:1;fill:#ffffff;fill-opacity:1;stroke:none;stroke-opacity:1"
       id="path3351"
       cx="3.4709821"
       cy="1051.2747"
       rx="2.4665179"
       ry="1.0825893" />
    <path
       style="fill:#ffffff;fill-opacity:1;fill-rule:evenodd;stroke:none;stroke-width:1px;stroke-linecap:butt;stroke-linejoin:miter;stroke-opacity:1"
       d="m 0.99437055,1045.3436 c 0,0 0.0262225,6.1581 0,6.0609 -0.0262225,-0.097 5.00707565,0 5.00707565,0 l 0,-6.029 z"
       id="path3350" />
    <path
       id="path4163-4-0"
       d="m 5.47583,1050.3053 0,0.5002 c 0,0 -0.5325989,1.0498 -1.5061289,1.0498 l -1.1885365,0 c -0.5159588,0 -1.1249627,-0.7698 -1.1249627,-0.9276 l -0.1484375,-0.6884 0,-0.8854"
       style="fill:none;fill-rule:evenodd;stroke:#ffffff;stroke-width:1.01002824;stroke-linecap:butt;stroke-linejoin:miter;stroke-miterlimit:4;stroke-dasharray:none;stroke-opacity:1" />
    <path
       style="fill:#ffffff;fill-opacity:1;fill-rule:evenodd;stroke:none;stroke-width:1px;stroke-linecap:butt;stroke-linejoin:miter;stroke-opacity:1"
       d="m 0.9643804,1045.3617 4.0669726,0 c 1.3456424,0 1.9781742,0.6469 1.9781742,1.1791 l 0,4.6651 c 0,0.9855 -0.7544691,1.1791 -2.1052671,1.1791 l -3.8975154,0 z"
       id="path4168-7" />
    <path
       style="fill:none;fill-rule:evenodd;stroke:#894c1f;stroke-width:1;stroke-linecap:butt;stroke-linejoin:miter;stroke-miterlimit:4;stroke-dasharray:none;stroke-opacity:1"
       d="m 2.4969393,1045.8669 2.1249363,0 c 0.089272,-0.024 0.8744169,0.8718 0.8744169,1.0043 l 0,3.9731 c 0,0.1433 -0.8261452,1.0043 -0.9408212,1.0043 l -2.0363972,0 z"
       id="path4168" />
  </g>
</svg>
