<?xml version="1.0" encoding="UTF-8" standalone="no"?>
<!-- Created with Inkscape (http://www.inkscape.org/) -->

<svg
   width="7"
   height="7"
   id="svg2"
   version="1.1"
   xmlns="http://www.w3.org/2000/svg"
   xmlns:svg="http://www.w3.org/2000/svg"
   xmlns:rdf="http://www.w3.org/1999/02/22-rdf-syntax-ns#"
   xmlns:cc="http://creativecommons.org/ns#"
   xmlns:dc="http://purl.org/dc/elements/1.1/">
  <defs
     id="defs4">
    <filter
       id="filter3774"
       x="-0.2275"
       width="1.455"
       y="-0.13"
       height="1.26">
      <feGaussianBlur
         stdDeviation="0.275"
         id="feGaussianBlur3776" />
    </filter>
  </defs>
  <metadata
     id="metadata7">
    <rdf:RDF>
      <cc:Work
         rdf:about="">
        <dc:format>image/svg+xml</dc:format>
        <dc:type
           rdf:resource="http://purl.org/dc/dcmitype/StillImage" />
        <dc:title />
      </cc:Work>
    </rdf:RDF>
  </metadata>
  <g
     id="layer1"
     transform="translate(0,-1045.3622)">
    <rect
       style="fill:#ffffff;fill-opacity:1;stroke:none"
       id="rect3342"
       width="3"
       height="7"
       x="1"
       y="1045.3622" />
    <path
       style="fill:#ffffff;fill-opacity:1;stroke:#ffffff;filter:url(#filter3774);stroke-width:0.50000000000000000;stroke-miterlimit:4;stroke-dasharray:none;opacity:0.75"
       d="m 2,1045.3622 0,1 0,2 0,1 0,3 1,0 0,-3 2,0 0,-1 -2,0 0,-2 3,0 0,-1 -3,0 -1,0 z"
       id="rect2999-1" />
    <rect
       style="fill:#ffffff;fill-opacity:1;stroke:none"
       id="rect3342-3"
       width="3"
       height="3.0267856"
       x="3.0018706"
       y="1045.3678" />
    <rect
       style="fill:#ffffff;fill-opacity:1;stroke:none"
       id="rect3342-3-7"
       width="1.0357143"
       height="3.0267856"
       x="2.9795492"
       y="1049.3633" />
    <rect
       style="fill:#ffffff;fill-opacity:1;stroke:none"
       id="rect3342-3-7-5"
       width="3.0223215"
       height="0.99553561"
       x="1.9795492"
       y="1049.3633" />
    <rect
       style="fill:#ffffff;fill-opacity:1;stroke:none"
       id="rect3342-3-7-5-0"
       width="3.0223215"
       height="2.0223212"
       x="3.9840136"
       y="1045.3499" />
    <rect
       style="fill:#ffffff;fill-opacity:1;stroke:none"
       id="rect3342-3-7-5-9"
       width="3.0223215"
       height="0.99553561"
       x="3.9795492"
       y="1046.3633" />
    <rect
       style="fill:#ffffff;fill-opacity:1;stroke:none"
       id="rect3342-3-7-5-9-7"
       width="3.0223215"
       height="0.99553561"
       x="2.9482994"
       y="1047.39" />
    <path
       style="fill:#286296;fill-opacity:1;stroke:none"
       d="m 2,1045.3622 0,1 0,2 0,1 0,3 1,0 0,-3 2,0 0,-1 -2,0 0,-2 3,0 0,-1 -3,0 -1,0 z"
       id="rect2999" />
  </g>
</svg>
