<?xml version="1.0" encoding="UTF-8" standalone="no"?>
<!-- Created with Inkscape (http://www.inkscape.org/) -->

<svg
   width="7"
   height="8"
   id="svg2"
   version="1.1"
   xmlns="http://www.w3.org/2000/svg"
   xmlns:svg="http://www.w3.org/2000/svg"
   xmlns:rdf="http://www.w3.org/1999/02/22-rdf-syntax-ns#"
   xmlns:cc="http://creativecommons.org/ns#"
   xmlns:dc="http://purl.org/dc/elements/1.1/">
  <defs
     id="defs4">
    <filter
       id="filter3844"
       x="-0.24374368"
       width="1.4874874"
       y="-0.24374368"
       height="1.4874874">
      <feGaussianBlur
         stdDeviation="0.30304577"
         id="feGaussianBlur3846" />
    </filter>
    <mask
       maskUnits="userSpaceOnUse"
       id="mask3871">
      <path
         style="fill:#ffffff;stroke:#ffffff;stroke-width:1;stroke-linecap:round;stroke-linejoin:round;stroke-miterlimit:4;stroke-opacity:1;stroke-dasharray:none"
         id="path3873"
         d="m 6.5344243,4.4644661 a 3.0304577,3.0304577 0 1 1 -6.06091547,0 3.0304577,3.0304577 0 1 1 6.06091547,0 z"
         transform="translate(0,1044.4254)" />
    </mask>
  </defs>
  <metadata
     id="metadata7">
    <rdf:RDF>
      <cc:Work
         rdf:about="">
        <dc:format>image/svg+xml</dc:format>
        <dc:type
           rdf:resource="http://purl.org/dc/dcmitype/StillImage" />
        <dc:title />
      </cc:Work>
    </rdf:RDF>
  </metadata>
  <g
     id="layer1"
     transform="translate(0,-1044.3622)">
    <path
       style="fill:#ffffff;stroke:#656a70;stroke-width:1;stroke-linecap:round;stroke-linejoin:round;stroke-miterlimit:4;stroke-opacity:1;stroke-dasharray:none"
       id="path2996"
       d="M 6.5344243,4.4644661 A 3.0304577,3.0304577 0 0 1 3.5039666,7.4949238 3.0304577,3.0304577 0 0 1 0.47350883,4.4644661 3.0304577,3.0304577 0 0 1 3.5039666,1.4340084 3.0304577,3.0304577 0 0 1 6.5344243,4.4644661 Z"
       transform="translate(0,1044.4254)" />
    <g
       id="g3866"
       mask="url(#mask3871)">
      <g
         style="stroke:#b9d6e6;stroke-width:1.5;stroke-miterlimit:4;stroke-opacity:1;stroke-dasharray:none;filter:url(#filter3844)"
         id="g3812-4"
         transform="translate(-4,0)">
        <path
           style="fill:none;stroke:#b9d6e6;stroke-width:1.5;stroke-linecap:round;stroke-linejoin:round;stroke-miterlimit:4;stroke-opacity:1;stroke-dasharray:none"
           id="path2996-1-0"
           d="M 6.5344243,4.4644661 A 3.0304577,3.0304577 0 0 1 3.5039666,7.4949238 3.0304577,3.0304577 0 0 1 0.47350883,4.4644661 3.0304577,3.0304577 0 0 1 3.5039666,1.4340084 3.0304577,3.0304577 0 0 1 6.5344243,4.4644661 Z"
           transform="translate(4,1044.4254)" />
        <path
           style="fill:none;stroke:#b9d6e6;stroke-width:1.5;stroke-linecap:butt;stroke-linejoin:miter;stroke-miterlimit:4;stroke-opacity:1;stroke-dasharray:none"
           d="m 5.144683,1051.2175 4.710634,-4.7106"
           id="path2998-7-9" />
      </g>
    </g>
    <g
       id="g3812"
       transform="translate(-4,0)">
      <path
         transform="translate(4,1044.4254)"
         d="M 6.5344243,4.4644661 A 3.0304577,3.0304577 0 0 1 3.5039666,7.4949238 3.0304577,3.0304577 0 0 1 0.47350883,4.4644661 3.0304577,3.0304577 0 0 1 3.5039666,1.4340084 3.0304577,3.0304577 0 0 1 6.5344243,4.4644661 Z"
         id="path2996-1"
         style="fill:none;stroke:#656a70;stroke-width:0.9;stroke-linecap:round;stroke-linejoin:round;stroke-miterlimit:4;stroke-opacity:1;stroke-dasharray:none" />
      <path
         id="path2998-7"
         d="m 5.144683,1051.2175 4.710634,-4.7106"
         style="fill:none;stroke:#656a70;stroke-width:0.9;stroke-linecap:butt;stroke-linejoin:miter;stroke-opacity:1;stroke-miterlimit:4;stroke-dasharray:none" />
    </g>
  </g>
</svg>
