<?xml version="1.0" encoding="UTF-8" standalone="no"?>
<!-- Created with Inkscape (http://www.inkscape.org/) -->

<svg
   width="7"
   height="8"
   id="svg2"
   version="1.1"
   xmlns:xlink="http://www.w3.org/1999/xlink"
   xmlns="http://www.w3.org/2000/svg"
   xmlns:svg="http://www.w3.org/2000/svg"
   xmlns:rdf="http://www.w3.org/1999/02/22-rdf-syntax-ns#"
   xmlns:cc="http://creativecommons.org/ns#"
   xmlns:dc="http://purl.org/dc/elements/1.1/">
  <defs
     id="defs4">
    <linearGradient
       id="linearGradient3798">
      <stop
         style="stop-color:#55429f;stop-opacity:0;"
         offset="0"
         id="stop3800" />
      <stop
         style="stop-color:#55429f;stop-opacity:1;"
         offset="1"
         id="stop3802" />
    </linearGradient>
    <linearGradient
       id="linearGradient10798-1-9-3-7-6-8-9-0-9-1">
      <stop
         style="stop-color:#7564b1;stop-opacity:1"
         offset="0"
         id="stop10800-5-2-1-8-20-6-4-9-8-2" />
      <stop
         id="stop10806-6-8-5-3-9-24-8-4-3-2"
         offset="0.5"
         style="stop-color:#5d4aa1;stop-opacity:1" />
      <stop
         style="stop-color:#9283c3;stop-opacity:1"
         offset="1"
         id="stop10802-1-5-3-0-4-8-4-2-9-2" />
    </linearGradient>
    <linearGradient
       y2="462.11539"
       x2="388.63736"
       y1="478.18777"
       x1="388.63736"
       gradientUnits="userSpaceOnUse"
       id="linearGradient3102"
       xlink:href="#linearGradient10798-1-9-3-7-6-8-9-0-9-1" />
    <radialGradient
       xlink:href="#linearGradient3798"
       id="radialGradient3804"
       cx="388.125"
       cy="468.23718"
       fx="388.125"
       fy="468.23718"
       r="11.708107"
       gradientUnits="userSpaceOnUse"
       gradientTransform="matrix(0.82332722,0,0,0.82332722,68.57113,82.724774)" />
  </defs>
  <metadata
     id="metadata7">
    <rdf:RDF>
      <cc:Work
         rdf:about="">
        <dc:format>image/svg+xml</dc:format>
        <dc:type
           rdf:resource="http://purl.org/dc/dcmitype/StillImage" />
        <dc:title />
      </cc:Work>
    </rdf:RDF>
  </metadata>
  <g
     id="layer1"
     transform="translate(0,-1044.3622)">
    <path
       style="font-size:13.58917427px;font-style:normal;font-weight:normal;line-height:125%;letter-spacing:0px;word-spacing:0px;fill:url(#linearGradient3102);fill-opacity:1;stroke:#55429f;stroke-width:2.16621375;stroke-linecap:round;stroke-linejoin:round;stroke-miterlimit:4;stroke-opacity:1;stroke-dasharray:none;stroke-dashoffset:0;display:inline;font-family:Sans"
       id="path10796-2-6-2"
       d="m 398.75,468.23718 a 10.625,10.625 0 0 1 -10.625,10.625 10.625,10.625 0 0 1 -10.625,-10.625 10.625,10.625 0 0 1 10.625,-10.625 10.625,10.625 0 0 1 10.625,10.625 z"
       transform="matrix(0.29869153,0,0,0.29869153,-112.42903,908.01433)" />
    <path
       style="font-size:13.58917427000000100px;font-style:normal;font-weight:normal;line-height:125%;letter-spacing:0px;word-spacing:0px;fill:url(#radialGradient3804);fill-opacity:1;stroke:#55429f;stroke-width:2.16621374999999980;stroke-linecap:round;stroke-linejoin:round;stroke-miterlimit:4;stroke-opacity:1;stroke-dasharray:none;stroke-dashoffset:0;display:inline;font-family:Sans"
       id="path10796-2-6-2-4"
       d="m 398.75,468.23718 a 10.625,10.625 0 0 1 -10.625,10.625 10.625,10.625 0 0 1 -10.625,-10.625 10.625,10.625 0 0 1 10.625,-10.625 10.625,10.625 0 0 1 10.625,10.625 z"
       transform="matrix(0.29869153,0,0,0.29869153,-112.42903,908.01433)" />
    <path
       style="font-style:normal;font-weight:normal;font-size:13.58917427px;line-height:125%;font-family:Sans;letter-spacing:0px;word-spacing:0px;display:inline;fill:#ffffff;fill-opacity:1;stroke:none"
       d="m 2.0016375,1045.3643 0,0.9929 1.0020368,0 0,3.0147 -1.0020368,0 0,0.9929 2.997988,0 0,-0.9929 -1.0020354,0 0,-3.0147 1.0059813,0 0,-0.9929 z"
       id="rect7222" />
  </g>
</svg>
