<?xml version="1.0" encoding="UTF-8" standalone="no"?>
<!-- Created with Inkscape (http://www.inkscape.org/) -->

<svg
   width="7"
   height="8"
   id="svg2"
   version="1.1"
   xmlns="http://www.w3.org/2000/svg"
   xmlns:svg="http://www.w3.org/2000/svg"
   xmlns:rdf="http://www.w3.org/1999/02/22-rdf-syntax-ns#"
   xmlns:cc="http://creativecommons.org/ns#"
   xmlns:dc="http://purl.org/dc/elements/1.1/">
  <defs
     id="defs4">
    <filter
       id="filter3787"
       x="-0.43680911"
       width="1.8736182"
       y="-0.088013492"
       height="1.291956">
      <feGaussianBlur
         stdDeviation="0.23725055"
         id="feGaussianBlur3789" />
    </filter>
  </defs>
  <metadata
     id="metadata7">
    <rdf:RDF>
      <cc:Work
         rdf:about="">
        <dc:format>image/svg+xml</dc:format>
        <dc:type
           rdf:resource="http://purl.org/dc/dcmitype/StillImage" />
        <dc:title />
      </cc:Work>
    </rdf:RDF>
  </metadata>
  <g
     id="layer1"
     transform="translate(0,-1044.3622)">
    <path
       style="fill:#ffffff;fill-opacity:1;fill-rule:evenodd;stroke:none;stroke-width:1px;stroke-linecap:butt;stroke-linejoin:miter;stroke-opacity:1"
       d="m 4.0090429,1044.3757 0,2.9909 -3.014674,0.01 c 0,0 -0.26722643,2.4484 0.2051873,3.3462 0.4724137,0.8977 0.6450779,1.1364 1.4205269,1.5152 0.775449,0.3788 2.4306796,0.1579 2.4306796,0.1579 0,0 1.6730651,-0.1894 1.894036,-2.0519 0.2209709,-1.8625 0.1262691,-5.9978 0.1262691,-5.9978 z"
       id="path4152" />
    <path
       style="fill:none;stroke:#ffffff;stroke-width:1.50000000000000000;stroke-linecap:butt;stroke-linejoin:miter;stroke-opacity:1;filter:url(#filter3787);stroke-miterlimit:4;stroke-dasharray:none;opacity:0.75"
       d="m 2.470527,1048.3667 0,0.9905 c 0,2.0131 3.0205444,2.0023 3.0205444,0 l 0,-4.9637"
       id="path2999-1" />
    <path
       style="fill:none;stroke:#286296;stroke-width:1px;stroke-linecap:butt;stroke-linejoin:miter;stroke-opacity:1"
       d="m 2.470527,1048.3667 0,0.9905 c 0,2.0131 3.0205444,2.0023 3.0205444,0 l 0,-4.9637"
       id="path2999" />
  </g>
</svg>
