<?xml version="1.0" encoding="UTF-8" standalone="no"?>
<!-- Created with Inkscape (http://www.inkscape.org/) -->

<svg
   width="7"
   height="7"
   id="svg2"
   version="1.1"
   xmlns="http://www.w3.org/2000/svg"
   xmlns:svg="http://www.w3.org/2000/svg"
   xmlns:rdf="http://www.w3.org/1999/02/22-rdf-syntax-ns#"
   xmlns:cc="http://creativecommons.org/ns#"
   xmlns:dc="http://purl.org/dc/elements/1.1/">
  <defs
     id="defs4" />
  <metadata
     id="metadata7">
    <rdf:RDF>
      <cc:Work
         rdf:about="">
        <dc:format>image/svg+xml</dc:format>
        <dc:type
           rdf:resource="http://purl.org/dc/dcmitype/StillImage" />
        <dc:title />
      </cc:Work>
    </rdf:RDF>
  </metadata>
  <g
     id="layer1"
     transform="translate(0,-1045.3622)">
    <rect
       style="opacity:1;fill:#ffffff;fill-opacity:1;stroke:none;stroke-opacity:1"
       id="rect3335"
       width="6.0056729"
       height="7.0078855"
       x="0.81285709"
       y="1045.4174" />
    <path
       style="fill:none;fill-rule:evenodd;stroke:#056272;stroke-width:0.89999998;stroke-linecap:butt;stroke-linejoin:miter;stroke-miterlimit:4;stroke-dasharray:none;stroke-opacity:1"
       d="m 2.1103876,1050.4591 v 0.5658 c 0,0.7062 0.514865,0.9549 1.0021938,0.9549 h 0.9737723 c 0.4989125,0 1.0407365,-0.5427 1.0407365,-1.0408 v -1.01 c 0,-0.4341 -0.4421148,-0.9431 -0.9430803,-0.9431 H 3.1237421 c -0.4787643,0 -1.015625,-0.5509 -1.015625,-1.0156 v -1.0491 c 0,-0.4379 0.5309512,-1.0045 1.0044643,-1.0045 h 1.0044642 c 0.7461273,0 1.0267857,0.8971 1.0267857,1.0715 v 0.4811"
       id="path4147" />
    <ellipse
       cy="1048.9078"
       cx="3.6392784"
       id="path2996-1"
       style="fill:none;stroke:#e10370;stroke-width:0.48845938;stroke-linecap:round;stroke-linejoin:round;stroke-miterlimit:4;stroke-dasharray:none;stroke-opacity:1"
       rx="3.0677953"
       ry="3.4466026" />
    <path
       id="path2998-7-7"
       d="m 1.8230606,1051.8711 3.5827828,-5.6469"
       style="fill:none;stroke:#e40870;stroke-width:0.4774321;stroke-linecap:butt;stroke-linejoin:miter;stroke-miterlimit:4;stroke-dasharray:none;stroke-opacity:1" />
  </g>
</svg>
