<?xml version="1.0" encoding="UTF-8" standalone="no"?>
<!-- Created with Inkscape (http://www.inkscape.org/) -->

<svg
   width="7"
   height="7"
   id="svg2"
   version="1.1"
   xmlns="http://www.w3.org/2000/svg"
   xmlns:svg="http://www.w3.org/2000/svg"
   xmlns:rdf="http://www.w3.org/1999/02/22-rdf-syntax-ns#"
   xmlns:cc="http://creativecommons.org/ns#"
   xmlns:dc="http://purl.org/dc/elements/1.1/">
  <defs
     id="defs4" />
  <metadata
     id="metadata7">
    <rdf:RDF>
      <cc:Work
         rdf:about="">
        <dc:format>image/svg+xml</dc:format>
        <dc:type
           rdf:resource="http://purl.org/dc/dcmitype/StillImage" />
        <dc:title />
      </cc:Work>
    </rdf:RDF>
  </metadata>
  <g
     id="layer1"
     transform="translate(0,-1045.3622)">
    <rect
       style="opacity:1;fill:#ffffff;fill-opacity:1;stroke:none;stroke-opacity:1"
       id="rect3335"
       width="6.0056729"
       height="7.0078855"
       x="1.0022607"
       y="1045.3542" />
    <path
       style="fill:none;fill-rule:evenodd;stroke:#366c9a;stroke-width:0.89999998;stroke-linecap:butt;stroke-linejoin:miter;stroke-miterlimit:4;stroke-dasharray:none;stroke-opacity:1"
       d="m 2.4608295,1052.3636 c -0.036823,-1.1364 -0.00547,-4.0233 -0.00547,-4.488 v -1.0491 c 0,-0.4379 0.5309512,-1.0045 1.0044643,-1.0045 H 4.464288 c 0.7461273,0 1.0267857,0.8024 1.0267857,1.0715 0,0 -0.00513,0.2891 0,0.8914 0.00218,0.2564 -0.1613058,1.0914 -0.9147827,1.1021 -0.5114529,0.01 -1.7053004,0.034 -1.7053004,0.034"
       id="path4147" />
    <path
       style="fill:none;fill-rule:evenodd;stroke:#366c9a;stroke-width:1px;stroke-linecap:butt;stroke-linejoin:miter;stroke-opacity:1"
       d="m 3.7880718,1048.9214 c 0,0 0.4192943,0.8854 1.0081939,1.7688 0.4738004,0.7107 0.6726981,1.3159 0.6919846,1.6564 l 0.00445,0.079"
       id="path4576" />
  </g>
</svg>
