<?xml version="1.0" encoding="UTF-8" standalone="no"?>
<!-- Created with Inkscape (http://www.inkscape.org/) -->

<svg
   version="1.1"
   id="svg2"
   height="7"
   width="7"
   xmlns="http://www.w3.org/2000/svg"
   xmlns:svg="http://www.w3.org/2000/svg"
   xmlns:rdf="http://www.w3.org/1999/02/22-rdf-syntax-ns#"
   xmlns:cc="http://creativecommons.org/ns#"
   xmlns:dc="http://purl.org/dc/elements/1.1/">
  <defs
     id="defs4" />
  <metadata
     id="metadata7">
    <rdf:RDF>
      <cc:Work
         rdf:about="">
        <dc:format>image/svg+xml</dc:format>
        <dc:type
           rdf:resource="http://purl.org/dc/dcmitype/StillImage" />
        <dc:title />
      </cc:Work>
    </rdf:RDF>
  </metadata>
  <g
     id="layer1"
     transform="translate(0,-1045.3622)">
    <rect
       style="opacity:1;fill:#ffffff;fill-opacity:1;stroke:none;stroke-opacity:1"
       id="rect3335"
       width="6.0056729"
       height="7.0078855"
       x="1.0022607"
       y="1045.3542" />
    <path
       style="fill:none;fill-rule:evenodd;stroke:#366c9a;stroke-width:0.9;stroke-linecap:butt;stroke-linejoin:miter;stroke-opacity:1;stroke-miterlimit:4;stroke-dasharray:none;fill-opacity:1"
       d="m 2.4576275,1050.3644 0,0.5658 c 0,0.7062 0.514865,0.9549 1.0021938,0.9549 l 0.9737723,0 c 0.4989125,0 1.0407365,-0.5427 1.0407365,-1.0408 l 0,-1.01 c 0,-0.4341 -0.4421148,-0.9431 -0.9430803,-0.9431 l -1.0602678,0 c -0.4787643,0 -1.015625,-0.5509 -1.015625,-1.0156 l 0,-1.0491 c 0,-0.4379 0.5309512,-1.0045 1.0044643,-1.0045 l 1.0044642,0 c 0.7461273,0 1.0267857,0.8971 1.0267857,1.0715 l 0,0.4811"
       id="path4147" />
  </g>
</svg>
