<?xml version="1.0" encoding="UTF-8" standalone="no"?>
<!-- Created with Inkscape (http://www.inkscape.org/) -->

<svg
   width="16"
   height="16"
   id="svg2"
   version="1.1"
   xmlns:xlink="http://www.w3.org/1999/xlink"
   xmlns="http://www.w3.org/2000/svg"
   xmlns:svg="http://www.w3.org/2000/svg"
   xmlns:rdf="http://www.w3.org/1999/02/22-rdf-syntax-ns#"
   xmlns:cc="http://creativecommons.org/ns#"
   xmlns:dc="http://purl.org/dc/elements/1.1/">
  <defs
     id="defs4">
    <filter
       style="color-interpolation-filters:sRGB"
       id="filter4270"
       x="-0.31729107"
       width="1.6345821"
       y="-0.14300823"
       height="1.2860165">
      <feGaussianBlur
         stdDeviation="0.22885175"
         id="feGaussianBlur4272" />
    </filter>
    <filter
       style="color-interpolation-filters:sRGB"
       id="filter4499"
       x="-0.07215115"
       width="1.1443023"
       y="-0.071849168"
       height="1.1436983">
      <feGaussianBlur
         stdDeviation="0.21929058"
         id="feGaussianBlur4501" />
    </filter>
    <linearGradient
       xlink:href="#linearGradient4156"
       id="linearGradient4162"
       x1="3.7713745"
       y1="1061.4009"
       x2="3.9301004"
       y2="1067.0873"
       gradientUnits="userSpaceOnUse"
       gradientTransform="matrix(1.3685252,0,0,1.3893304,-5.9899252,-427.08443)" />
    <linearGradient
       id="linearGradient4156">
      <stop
         style="stop-color:#81c6a2;stop-opacity:1"
         offset="0"
         id="stop4158" />
      <stop
         style="stop-color:#479a6f;stop-opacity:1"
         offset="1"
         id="stop4160" />
    </linearGradient>
  </defs>
  <metadata
     id="metadata7">
    <rdf:RDF>
      <cc:Work
         rdf:about="">
        <dc:format>image/svg+xml</dc:format>
        <dc:type
           rdf:resource="http://purl.org/dc/dcmitype/StillImage" />
        <dc:title />
      </cc:Work>
    </rdf:RDF>
  </metadata>
  <g
     id="layer1"
     style="display:inline"
     transform="translate(0,-1036.3622)">
    <g
       style="display:inline"
       id="g8159"
       transform="translate(-8.1759221,-11.866136)">
      <g
         transform="matrix(0.73056116,0,0,0.72750345,11.535974,295.24315)"
         style="display:inline"
         id="layer1-4">
        <g
           transform="matrix(0.97487237,0,0,1.0529718,1.2353345,-121.3327)"
           style="font-style:normal;font-weight:normal;font-size:20.8505249px;line-height:125%;font-family:sans-serif;letter-spacing:0px;word-spacing:0px;fill:#21844f;fill-opacity:1;stroke:none;stroke-width:1px;stroke-linecap:butt;stroke-linejoin:miter;stroke-opacity:1"
           id="text4274">
          <path
             d="m 5.7116068,1103.4245 c -0.1425329,0.013 -0.2511294,0.069 -0.3257895,0.1647 -0.07466,0.096 -0.1123775,0.1957 -0.1119901,0.2986 l 0.021072,5.5974 c 0.013954,3.7067 -1.4512517,5.6713 -5.43113168,5.6713 -1.80177982,-0.1182 -2.48028302,-0.9148 -3.02345352,-2.0718 l -0.017128,-3.1277 1.4002613,0 c 0.3486131,1.6875 -0.1943701,3.9201 1.72678076,3.9215 2.28718454,0 2.48512424,-2.6479 2.47924504,-4.2498 l -0.021072,-5.7416 c -3.777e-4,-0.1029 -0.03733,-0.2024 -0.1119902,-0.2986 -0.067873,-0.096 -0.1764693,-0.1509 -0.3257894,-0.1647 l -2.26158131,-0.023 0.0210721,-1.24 8.33836871,-0.039 -0.021072,1.24 -2.3358024,0.062 z"
             style="font-style:normal;font-variant:normal;font-weight:normal;font-stretch:normal;font-family:'Abyssinica SIL';fill:#21844f;fill-opacity:1"
             id="path4283" />
        </g>
        <g
           transform="matrix(0.99327278,0,0,1.0524531,1.8486734,-55.527925)"
           style="font-style:normal;font-weight:normal;font-size:13.30733204px;line-height:125%;font-family:sans-serif;letter-spacing:0px;word-spacing:0px;fill:#d8424f;fill-opacity:1;stroke:none;stroke-width:1px;stroke-linecap:butt;stroke-linejoin:miter;stroke-opacity:1"
           id="text4278">
          <path
             d="m 14.493918,1045.3113 c -0.0953,0.01 -0.166775,0.043 -0.214425,0.104 -0.04332,0.061 -0.06498,0.1235 -0.06498,0.1884 l 0,4.3866 c 0,2.119 -1.076061,3.1454 -3.002754,3.1906 -2.6733245,0.063 -3.5791128,-1.1761 -3.9394497,-3.1906 l 0,-4.3079 c 0,-0.065 -0.023825,-0.1275 -0.071475,-0.1884 -0.043318,-0.061 -0.112627,-0.095 -0.2079271,-0.104 l -1.0817934,-0.032 0,-1.3192 4.6249862,0 0,1.3192 -0.760234,0.052 c -0.0953,0.01 -0.1667748,0.043 -0.2144248,0.104 -0.043318,0.061 -0.064977,0.1235 -0.064977,0.1884 l 0,3.9635 c 4.416e-4,1.5084 0.2961724,2.3273 1.7821368,2.2317 1.348299,-0.087 1.595847,-1.1413 1.595847,-2.2317 l 0,-4.0422 c 0,-0.065 -0.02599,-0.1275 -0.07797,-0.1884 -0.04765,-0.061 -0.119128,-0.095 -0.214425,-0.104 l -1.154527,-0.013 0,-1.2405 4.130158,-0.039 0,1.2405 z"
             style="font-style:normal;font-variant:normal;font-weight:normal;font-stretch:normal;font-family:'Abyssinica SIL';-inkscape-font-specification:'Abyssinica SIL';fill:#d8424f;fill-opacity:1"
             id="path4286" />
        </g>
        <path
           style="display:inline;opacity:0.89200003;fill:#eff0f0;fill-opacity:1;stroke:none;stroke-width:1;stroke-linecap:butt;stroke-linejoin:miter;stroke-miterlimit:4;stroke-dasharray:none;stroke-dashoffset:0;stroke-opacity:1;filter:url(#filter4270)"
           d="m 6.3163901,5.9987159 1.7310421,0 L 7.925462,8.8588746 6.6416441,9.8393634 6.426655,7.6490535 Z"
           id="rect7768-7"
           transform="matrix(1.2669861,0,0,1.7718206,-4.1169805,1034.5534)" />
        <ellipse
           style="display:inline;opacity:0.90399996;fill:#e9deb7;fill-opacity:1;stroke:none;stroke-width:1.37168431;stroke-linecap:butt;stroke-linejoin:miter;stroke-miterlimit:4;stroke-dasharray:none;stroke-dashoffset:0;stroke-opacity:1;filter:url(#filter4499)"
           id="path4469"
           cx="13.727267"
           cy="1039.1163"
           rx="3.6471865"
           ry="3.6625156"
           transform="matrix(0.8323829,0,0,0.83236897,2.2842392,174.29003)" />
        <g
           style="display:inline"
           id="g4521"
           transform="translate(-23.281781,-0.01229011)">
          <path
             id="path4430"
             d="m 37.150891,1035.0263 0,8.2474"
             style="fill:none;fill-rule:evenodd;stroke:#355883;stroke-width:1.37168431px;stroke-linecap:butt;stroke-linejoin:miter;stroke-opacity:1" />
          <path
             id="path4430-8-3"
             d="m 34.161058,1036.9375 6.06822,4.5836"
             style="display:inline;fill:none;fill-rule:evenodd;stroke:#355883;stroke-width:1.37168431px;stroke-linecap:butt;stroke-linejoin:miter;stroke-opacity:1" />
          <path
             id="path4430-8-3-1"
             d="m 39.98197,1036.8345 -5.979458,4.6998"
             style="display:inline;fill:none;fill-rule:evenodd;stroke:#355883;stroke-width:1.37168431px;stroke-linecap:butt;stroke-linejoin:miter;stroke-opacity:1" />
        </g>
        <path
           style="display:inline;opacity:1;fill:url(#linearGradient4162);fill-opacity:1;stroke:#029e4b;stroke-width:1.37168431;stroke-linecap:butt;stroke-linejoin:miter;stroke-miterlimit:4;stroke-dasharray:none;stroke-dashoffset:0;stroke-opacity:1"
           d="m -3.9134331,1046.7116 8.2250442,0 0,9.6219 -8.2250442,0 z"
           id="rect7768" />
        <path
           style="display:inline;fill:none;fill-opacity:1;stroke:#ffffff;stroke-width:2.05752659;stroke-linecap:round;stroke-miterlimit:4;stroke-dasharray:none"
           id="path4065"
           d="m -2.1870603,1052.1312 c 0.5577689,0.8629 1.67852918,3.132 2.14776668,2.2568 0.5808238,-1.0832 2.62513212,-5.9793 2.62513212,-5.9793" />
      </g>
    </g>
  </g>
</svg>
