<?xml version="1.0" encoding="UTF-8" standalone="no"?>
<!-- Created with Inkscape (http://www.inkscape.org/) -->

<svg
   width="16"
   height="16"
   id="svg2"
   version="1.1"
   xmlns:xlink="http://www.w3.org/1999/xlink"
   xmlns="http://www.w3.org/2000/svg"
   xmlns:svg="http://www.w3.org/2000/svg"
   xmlns:rdf="http://www.w3.org/1999/02/22-rdf-syntax-ns#"
   xmlns:cc="http://creativecommons.org/ns#"
   xmlns:dc="http://purl.org/dc/elements/1.1/">
  <defs
     id="defs4">
    <linearGradient
       id="linearGradient4968">
      <stop
         id="stop4970"
         offset="0"
         style="stop-color:#7792b2;stop-opacity:1;" />
      <stop
         style="stop-color:#a1b3cb;stop-opacity:1"
         offset="0.15948199"
         id="stop4972" />
      <stop
         style="stop-color:#6180a9;stop-opacity:1"
         offset="0.46551239"
         id="stop4974" />
      <stop
         style="stop-color:#a1b3cb;stop-opacity:1"
         offset="0.74424738"
         id="stop4976" />
      <stop
         id="stop4978"
         offset="1"
         style="stop-color:#7995b8;stop-opacity:1" />
    </linearGradient>
    <linearGradient
       id="linearGradient4960">
      <stop
         id="stop4962"
         offset="0"
         style="stop-color:#fdfcfa;stop-opacity:1;" />
      <stop
         style="stop-color:#ffffff;stop-opacity:0.251"
         offset="0.67397189"
         id="stop4964" />
      <stop
         id="stop4966"
         offset="1"
         style="stop-color:#d2e0f1;stop-opacity:0" />
    </linearGradient>
    <linearGradient
       id="linearGradient4847">
      <stop
         style="stop-color:#d2e0f1;stop-opacity:1"
         offset="0"
         id="stop4849" />
      <stop
         id="stop4855"
         offset="0.84137291"
         style="stop-color:#d2e0f1;stop-opacity:1" />
      <stop
         style="stop-color:#fcf2cf;stop-opacity:1"
         offset="1"
         id="stop4851" />
    </linearGradient>
    <linearGradient
       id="linearGradient4825">
      <stop
         style="stop-color:#c7a229;stop-opacity:1"
         offset="0"
         id="stop4827" />
      <stop
         style="stop-color:#a07e1e;stop-opacity:1"
         offset="1"
         id="stop4829" />
    </linearGradient>
    <linearGradient
       id="linearGradient4817">
      <stop
         style="stop-color:#fefdef;stop-opacity:1;"
         offset="0"
         id="stop4819" />
      <stop
         style="stop-color:#fbdd83;stop-opacity:1"
         offset="1"
         id="stop4821" />
    </linearGradient>
    <radialGradient
       xlink:href="#linearGradient4847"
       id="radialGradient4089"
       gradientUnits="userSpaceOnUse"
       gradientTransform="matrix(-8.4128165e-6,1.4346441,-1.6077392,-9.4278539e-6,1685.7036,1001.9661)"
       cx="28.538633"
       cy="1043.1821"
       fx="28.538633"
       fy="1043.1821"
       r="5.3910385" />
    <radialGradient
       xlink:href="#linearGradient4960"
       id="radialGradient4091"
       gradientUnits="userSpaceOnUse"
       gradientTransform="matrix(0.88536081,0.01424168,-0.02077996,1.2918258,4.947957,-305.15187)"
       cx="28.552979"
       cy="1043.1234"
       fx="28.552979"
       fy="1043.1234"
       r="5.0160384" />
    <linearGradient
       xlink:href="#linearGradient4968"
       id="linearGradient4093"
       gradientUnits="userSpaceOnUse"
       gradientTransform="translate(-20,0)"
       x1="33.922783"
       y1="1051.2581"
       x2="33.922783"
       y2="1040.4603" />
    <linearGradient
       xlink:href="#linearGradient4817"
       id="linearGradient4095"
       gradientUnits="userSpaceOnUse"
       gradientTransform="translate(-20,-0.147048)"
       x1="25.082857"
       y1="1038.8719"
       x2="31.931776"
       y2="1038.8719" />
    <linearGradient
       xlink:href="#linearGradient4825"
       id="linearGradient4097"
       gradientUnits="userSpaceOnUse"
       gradientTransform="translate(-20,-0.147048)"
       x1="27.425272"
       y1="1037.7671"
       x2="27.425272"
       y2="1039.8464" />
    <linearGradient
       id="linearGradient4922-7-7">
      <stop
         id="stop4924-2-1"
         offset="0"
         style="stop-color:#0d5c9a;stop-opacity:1" />
      <stop
         id="stop4926-0-0"
         offset="1"
         style="stop-color:#4077a7;stop-opacity:1" />
    </linearGradient>
    <linearGradient
       y2="1050.3622"
       x2="6.9999828"
       y1="1048.8934"
       x1="8.5"
       gradientTransform="translate(-3.9986986,-0.97250692)"
       gradientUnits="userSpaceOnUse"
       id="linearGradient7131"
       xlink:href="#linearGradient4922-7-7" />
    <linearGradient
       id="linearGradient4738-9">
      <stop
         style="stop-color:#8cc861;stop-opacity:1"
         offset="0"
         id="stop4740-11" />
      <stop
         id="stop4746-7"
         offset="0.43753415"
         style="stop-color:#4aa766;stop-opacity:1" />
      <stop
         style="stop-color:#c2dd97;stop-opacity:1"
         offset="1"
         id="stop4742-0" />
    </linearGradient>
    <linearGradient
       xlink:href="#linearGradient4738-9"
       id="linearGradient4744-0"
       x1="-13.936629"
       y1="1049.9579"
       x2="-13.936629"
       y2="1040.053"
       gradientUnits="userSpaceOnUse"
       gradientTransform="translate(20,0)" />
    <mask
       maskUnits="userSpaceOnUse"
       id="mask14067">
      <g
         style="fill:#ffffff;stroke:#ffffff;display:inline"
         id="g14069"
         transform="matrix(0.90162747,0,0,0.90162747,3.4001546,101.43323)">
        <path
           id="path14071"
           d="m 6.253476,1039.2695 4.507805,0 c 0.453044,1.6907 2.762136,2.5911 2.762136,5.1157 l 0,3.7565 c 0,1.5302 -1.231912,2.7621 -2.762136,2.7621 l -4.507805,0 c -1.530224,0 -2.762136,-1.2319 -2.762136,-2.7621 l 0,-3.7565 c 0,-2.5909 2.334749,-3.5207 2.762136,-5.1157 z"
           style="fill:#ffffff;fill-opacity:1;stroke:#ffffff" />
        <path
           id="path14073"
           d="m 6.253476,1039.2695 4.507805,0 c 0.453044,1.6907 2.762136,2.5911 2.762136,5.1157 l 0,3.7565 c 0,1.5302 -1.231912,2.7621 -2.762136,2.7621 l -4.507805,0 c -1.530224,0 -2.762136,-1.2319 -2.762136,-2.7621 l 0,-3.7565 c 0,-2.5909 2.334749,-3.5207 2.762136,-5.1157 z"
           style="fill:#ffffff;fill-opacity:1;stroke:#ffffff;display:inline" />
        <path
           id="path14075"
           d="m 6.253476,1039.2695 4.507805,0 c 0.453044,1.6907 2.762136,2.5911 2.762136,5.1157 l 0,3.7565 c 0,1.5302 -1.231912,2.7621 -2.762136,2.7621 l -4.507805,0 c -1.530224,0 -2.762136,-1.2319 -2.762136,-2.7621 l 0,-3.7565 c 0,-2.5909 2.334749,-3.5207 2.762136,-5.1157 z"
           style="fill:#ffffff;stroke:#ffffff;stroke-width:1.10910547;stroke-linecap:butt;stroke-linejoin:round;stroke-miterlimit:4;stroke-opacity:1;stroke-dasharray:none;stroke-dashoffset:0;display:inline" />
        <rect
           ry="0.76234949"
           rx="0.76234949"
           y="1037.6309"
           x="4.3973198"
           height="2.1876116"
           width="8.2201157"
           id="rect14077"
           style="fill:#ffffff;fill-opacity:1;stroke:#ffffff;stroke-width:1.10910547;stroke-linecap:butt;stroke-linejoin:round;stroke-miterlimit:4;stroke-opacity:1;stroke-dasharray:none;stroke-dashoffset:0" />
      </g>
    </mask>
    <filter
       id="filter14087"
       x="-0.50009697"
       width="2.0001903"
       y="-0.54289605"
       height="2.0857921">
      <feGaussianBlur
         stdDeviation="0.82521381"
         id="feGaussianBlur14089" />
    </filter>
  </defs>
  <metadata
     id="metadata7">
    <rdf:RDF>
      <cc:Work
         rdf:about="">
        <dc:format>image/svg+xml</dc:format>
        <dc:type
           rdf:resource="http://purl.org/dc/dcmitype/StillImage" />
        <dc:title />
      </cc:Work>
    </rdf:RDF>
  </metadata>
  <g
     id="layer1"
     style="display:inline"
     transform="translate(0,-1036.3622)">
    <g
       id="g4083"
       transform="matrix(0.90162747,0,0,0.90162747,3.4001546,101.43323)">
      <path
         id="rect4044"
         d="m 6.253476,1039.2695 4.507805,0 c 0.453044,1.6907 2.762136,2.5911 2.762136,5.1157 l 0,3.7565 c 0,1.5302 -1.231912,2.7621 -2.762136,2.7621 l -4.507805,0 c -1.530224,0 -2.762136,-1.2319 -2.762136,-2.7621 l 0,-3.7565 c 0,-2.5909 2.334749,-3.5207 2.762136,-5.1157 z"
         style="fill:url(#radialGradient4089);fill-opacity:1;stroke:none" />
      <path
         id="rect4044-7"
         d="m 6.253476,1039.2695 4.507805,0 c 0.453044,1.6907 2.762136,2.5911 2.762136,5.1157 l 0,3.7565 c 0,1.5302 -1.231912,2.7621 -2.762136,2.7621 l -4.507805,0 c -1.530224,0 -2.762136,-1.2319 -2.762136,-2.7621 l 0,-3.7565 c 0,-2.5909 2.334749,-3.5207 2.762136,-5.1157 z"
         style="fill:url(#radialGradient4091);fill-opacity:1;stroke:none;display:inline" />
      <path
         id="rect4044-1"
         d="m 6.253476,1039.2695 4.507805,0 c 0.453044,1.6907 2.762136,2.5911 2.762136,5.1157 l 0,3.7565 c 0,1.5302 -1.231912,2.7621 -2.762136,2.7621 l -4.507805,0 c -1.530224,0 -2.762136,-1.2319 -2.762136,-2.7621 l 0,-3.7565 c 0,-2.5909 2.334749,-3.5207 2.762136,-5.1157 z"
         style="fill:none;stroke:url(#linearGradient4093);stroke-width:1.10910547;stroke-linecap:butt;stroke-linejoin:round;stroke-miterlimit:4;stroke-opacity:1;stroke-dasharray:none;stroke-dashoffset:0;display:inline" />
      <rect
         ry="0.76234949"
         rx="0.76234949"
         y="1037.6309"
         x="4.3973198"
         height="2.1876116"
         width="8.2201157"
         id="rect4815"
         style="fill:url(#linearGradient4095);fill-opacity:1;stroke:url(#linearGradient4097);stroke-width:1.10910547;stroke-linecap:butt;stroke-linejoin:round;stroke-miterlimit:4;stroke-opacity:1;stroke-dasharray:none;stroke-dashoffset:0" />
    </g>
    <path
       id="path4920"
       d="m 0.75130102,1047.3896 4.25000038,0 0,4.2813 z"
       style="fill:url(#linearGradient7131);fill-opacity:1;stroke:none;display:inline" />
    <g
       id="g14060"
       mask="url(#mask14067)">
      <g
         transform="matrix(0.60464179,0,0,0.79501942,5.8711347,216.07999)"
         id="layer1-1-5"
         style="stroke:#ffffff;stroke-width:2.88464283000000021;stroke-miterlimit:4;stroke-opacity:1;stroke-dasharray:none;display:inline;fill:#ffffff;opacity:0.75000000000000000;filter:url(#filter14087)">
        <g
           transform="matrix(0.27903303,0,0,0.27903303,-100.53208,912.07901)"
           style="stroke:#ffffff;stroke-width:10.33799770999999978;stroke-miterlimit:4;stroke-opacity:1;stroke-dasharray:none;display:inline;fill:#ffffff"
           id="g11331-3-1-1-6-8">
          <g
             id="g13408-8-4-2"
             style="fill:#ffffff;fill-opacity:1;stroke:#ffffff;stroke-width:10.33799770999999978;stroke-miterlimit:4;stroke-opacity:1;stroke-dasharray:none" />
        </g>
        <g
           style="stroke:#ffffff;stroke-width:4.61208024999999999;stroke-miterlimit:4;stroke-opacity:1;stroke-dasharray:none;display:inline;fill:#ffffff"
           id="layer1-2-4-5"
           transform="matrix(0.61981187,0,0,0.63114696,7.7969515,387.39989)">
          <path
             id="rect3968-1-8"
             d="m 2.497507,1039.8618 0,2.0277 0,5 0,3 1,0 9.546687,-4.5273 c 0.59227,-0.3746 0.618127,-0.6299 0,-1 l -9.126842,-4.5004 z"
             style="fill:#ffffff;fill-opacity:1;stroke:#ffffff;stroke-width:4.61208024999999999;stroke-linecap:round;stroke-linejoin:round;stroke-miterlimit:4;stroke-opacity:1;stroke-dasharray:none;stroke-dashoffset:0" />
        </g>
      </g>
    </g>
    <g
       style="stroke:#1e8550;stroke-width:1.40575719;stroke-miterlimit:4;stroke-opacity:1;stroke-dasharray:none;display:inline"
       id="layer1-1"
       transform="matrix(0.60464179,0,0,0.79501942,5.8711343,216.07999)">
      <g
         id="g11331-3-1-1-6"
         style="stroke:#1e8550;stroke-width:5.03795958;stroke-miterlimit:4;stroke-opacity:1;stroke-dasharray:none;display:inline"
         transform="matrix(0.27903303,0,0,0.27903303,-100.53208,912.07901)">
        <g
           style="fill:#737986;fill-opacity:1;stroke:#1e8550;stroke-width:5.03795958;stroke-miterlimit:4;stroke-opacity:1;stroke-dasharray:none"
           id="g13408-8-4" />
      </g>
      <g
         transform="matrix(0.61981187,0,0,0.63114696,7.7969515,387.39989)"
         id="layer1-2-4"
         style="stroke:#1e8550;stroke-width:2.24757981;stroke-miterlimit:4;stroke-opacity:1;stroke-dasharray:none;display:inline">
        <path
           style="fill:url(#linearGradient4744-0);fill-opacity:1;stroke:#1e8550;stroke-width:2.24757981;stroke-linecap:round;stroke-linejoin:round;stroke-miterlimit:4;stroke-opacity:1;stroke-dasharray:none;stroke-dashoffset:0"
           d="m 2.497507,1039.8618 0,2.0277 0,5 0,3 1,0 9.546687,-4.5273 c 0.59227,-0.3746 0.618127,-0.6299 0,-1 l -9.126842,-4.5004 z"
           id="rect3968-1" />
      </g>
    </g>
  </g>
</svg>
