<?xml version="1.0" encoding="UTF-8" standalone="no"?>
<!-- Created with Inkscape (http://www.inkscape.org/) -->

<svg
   width="16"
   height="16"
   id="svg2"
   version="1.1"
   xmlns:xlink="http://www.w3.org/1999/xlink"
   xmlns="http://www.w3.org/2000/svg"
   xmlns:svg="http://www.w3.org/2000/svg"
   xmlns:rdf="http://www.w3.org/1999/02/22-rdf-syntax-ns#"
   xmlns:cc="http://creativecommons.org/ns#"
   xmlns:dc="http://purl.org/dc/elements/1.1/">
  <defs
     id="defs4">
    <radialGradient
       xlink:href="#linearGradient4528-9-5-7-9-7-3-8"
       id="radialGradient3091-1-9-6-4-6-2"
       gradientUnits="userSpaceOnUse"
       gradientTransform="matrix(1.8508179,-8.813921e-6,8.4531434e-6,1.7750589,644.24981,572.63612)"
       cx="-757.20496"
       cy="-738.83777"
       fx="-757.20496"
       fy="-738.83777"
       r="3.4803574" />
    <linearGradient
       id="linearGradient4528-9-5-7-9-7-3-8">
      <stop
         style="stop-color:#e0c576;stop-opacity:1;"
         offset="0"
         id="stop4530-0-5-0-5-8-4-9" />
      <stop
         style="stop-color:#9e7916;stop-opacity:1"
         offset="1"
         id="stop4532-7-9-3-3-6-1-9" />
    </linearGradient>
    <linearGradient
       xlink:href="#linearGradient6281-8-0-1-6-6-4-2-8-0-1"
       id="linearGradient3093-5-2-7-0-9-8"
       gradientUnits="userSpaceOnUse"
       gradientTransform="matrix(2.3199889,0,0,2.3199889,10.199693,1043.1852)"
       x1="0.9375"
       y1="4.8437853"
       x2="0.9375"
       y2="7.549418" />
    <linearGradient
       id="linearGradient6281-8-0-1-6-6-4-2-8-0-1">
      <stop
         id="stop6283-0-2-2-1-2-0-1-6-0-7"
         offset="0"
         style="stop-color:#f7f9fb;stop-opacity:1" />
      <stop
         id="stop6285-5-0-9-7-6-9-9-1-9-3"
         offset="1"
         style="stop-color:#ffd680;stop-opacity:1" />
    </linearGradient>
  </defs>
  <metadata
     id="metadata7">
    <rdf:RDF>
      <cc:Work
         rdf:about="">
        <dc:format>image/svg+xml</dc:format>
        <dc:type
           rdf:resource="http://purl.org/dc/dcmitype/StillImage" />
        <dc:title />
      </cc:Work>
    </rdf:RDF>
  </metadata>
  <g
     id="layer1"
     transform="translate(0,-1036.3622)">
    <path
       style="fill:#ffffff;stroke:none;stroke-width:1px;stroke-linecap:butt;stroke-linejoin:miter;stroke-opacity:1;fill-opacity:1"
       d="m 12.020815,12.862214 0,-2.784233 0.574525,-0.8838838 c 0,0 0.08839,-1.9003494 0.04419,-2.1213203 C 12.59534,6.851806 11.75565,4.4211265 11.75565,4.4211265 L 9.9878833,3.3162721 8.7946406,2.8743304 7.6455921,2.8301362 5.6126601,3.4046605 3.7565048,3.9791847 2.3864854,5.83534 1.5909903,8.2218254 l 0.088388,1.8119616 0.7071068,1.635184 1.016466,1.546796 c 0,0 1.4584077,0.883884 1.7235728,0.839689 0.265165,-0.04419 2.0771261,0.574525 2.0771261,0.574525 l 1.767767,-0.30936 2.474874,-0.883883 z"
       id="path3840"
       transform="translate(0,1036.3622)" />
    <path
       style="font-size:11.05178356px;font-style:normal;font-variant:normal;font-weight:normal;font-stretch:normal;text-align:start;line-height:125%;letter-spacing:0px;word-spacing:0px;writing-mode:lr-tb;text-anchor:start;fill:#236298;fill-opacity:1;stroke:#236298;stroke-width:0.28257138;stroke-miterlimit:4;stroke-opacity:1;stroke-dasharray:none;display:inline;font-family:AustralianFlyingCorpsStencil;-inkscape-font-specification:AustralianFlyingCorpsStencil"
       d="m 4.1680169,1046.1162 c -0.1578852,-0.7083 -0.027496,-2.597 0.4319364,-3.4644 0.410999,-0.776 0.7953842,-1.1006 1.3477365,-1.1314 0.4702803,-0.026 1.1983928,-0.032 1.662602,0.399 0.4642092,0.4298 0.6488564,1.475 0.6185986,2.1377 -9.342e-4,0.8109 -0.1432755,1.4479 -0.1432755,1.4479 0,0 1.2657831,-0.026 1.7341517,-0.4287 0.4683684,-0.4024 1.2418114,-1.1484 1.1981324,-1.9297 -0.04368,-0.7813 0.701644,-0.238 0.37737,0.5194 -0.324273,0.7574 -0.431178,1.3616 -1.246551,1.8842 -0.7947743,0.553 -2.1368565,0.8029 -2.1368565,0.8029 -0.6219403,0.034 -0.3995581,0.6131 -1.2222308,1.1198 -0.5453862,0.3253 -1.5806633,0.3373 -1.9911781,-0.073 -0.4105148,-0.4105 -0.4725505,-0.5752 -0.6304357,-1.2835 z m 2.3027539,-3.7844 c -0.5654041,-0.1018 -0.959374,0.011 -1.27689,0.5443 -0.3794368,0.6349 -0.5022132,2.7214 -0.065616,3.4303 0.4365962,0.709 1.3310551,0.5316 1.671452,0.2632 0.3403969,-0.2684 0.3140642,-0.6024 0.3581777,-1.5103 0.044113,-0.9076 -0.034588,-1.5929 -0.034588,-1.5929 0,0 -0.087132,-1.0328 -0.6525357,-1.1346 z"
       id="path4719-2" />
    <g
       transform="matrix(1.2778996,0,0.03747938,1.2778996,-42.43467,-289.78125)"
       id="layer1-9"
       style="font-size:13.58917427px;font-style:normal;font-weight:normal;line-height:125%;letter-spacing:0px;word-spacing:0px;fill:#236298;fill-opacity:1;stroke:#236298;stroke-width:0.24860173;stroke-miterlimit:4;stroke-opacity:1;stroke-dasharray:none;display:inline;font-family:Sans">
      <g
         style="font-size:11.05178356px;font-style:normal;font-variant:normal;font-weight:normal;font-stretch:normal;text-align:start;line-height:125%;letter-spacing:0px;word-spacing:0px;writing-mode:lr-tb;text-anchor:start;fill:#236298;fill-opacity:1;stroke:#236298;stroke-width:0.24860173;stroke-miterlimit:4;stroke-opacity:1;stroke-dasharray:none;display:inline;font-family:AustralianFlyingCorpsStencil;-inkscape-font-specification:AustralianFlyingCorpsStencil"
         id="text3909-7-7-1"
         transform="translate(20,0)">
        <path
           style="fill:#236298;fill-opacity:1;stroke:#236298;stroke-width:0.24860173;stroke-miterlimit:4;stroke-opacity:1;stroke-dasharray:none"
           d="m -9.7295357,1040.7288 c -0.7925073,-0.372 -2.1308683,-0.8428 -3.1422163,-0.5739 -1.269577,0.3375 -1.866693,1.2474 -2.347947,2.038 -0.481254,0.7906 -0.88097,2.3054 -0.527138,3.5468 0.353832,1.2414 0.935789,1.9688 1.819576,2.4225 0.883788,0.4538 2.14235,0.6522 3.325854,0.3371 1.0615583,-0.2822 1.1249302,-0.3119 2.36878,-1.2648 l 0.3283232,0.276 c -0.9646988,0.8272 -1.2327121,1.0876 -2.5524882,1.4385 -1.43455,0.3814 -2.436321,0.2944 -3.527137,-0.1574 -1.188784,-0.5013 -1.969257,-1.4403 -2.341448,-2.8173 -0.375974,-1.3909 -0.166888,-2.9841 0.64465,-4.1913 0.783312,-1.1694 1.452825,-1.8227 2.880202,-2.2022 1.169149,-0.3108 2.593608,0.2772 3.4984519,0.6949"
           id="path4719" />
      </g>
    </g>
    <g
       style="display:inline"
       id="g6432"
       transform="translate(15.023334,-10.242077)">
      <g
         style="display:inline"
         id="g4514"
         transform="translate(-5.536708,-5.6240351)">
        <g
           id="g4522"
           transform="translate(-9.9375,0)">
          <rect
             style="fill:url(#radialGradient3091-1-9-6-4-6-2);fill-opacity:1;stroke:#a27d18;stroke-width:1.03243756;stroke-miterlimit:4;stroke-opacity:1;stroke-dasharray:none;display:inline"
             id="rect3910"
             width="4.5825453"
             height="4.454073"
             x="-758.82336"
             y="-740.41083"
             transform="matrix(-0.70710678,-0.70710678,0.70710678,-0.70710678,0,0)" />
          <path
             id="path5581-5-5"
             d="m 12.471186,1054.309 1.001133,0 0,1.946 1.986639,0 0,1.0167 -1.986639,0 0,2.043 -1.001133,0 0,-2.043 -1.98664,0 0,-1.0167 1.98664,0 z"
             style="fill:url(#linearGradient3093-5-2-7-0-9-8);fill-opacity:1;stroke:none;display:inline" />
        </g>
      </g>
    </g>
  </g>
</svg>
