<?xml version="1.0" encoding="UTF-8" standalone="no"?>
<!-- Created with Inkscape (http://www.inkscape.org/) -->

<svg
   width="16"
   height="16"
   id="svg2"
   version="1.1"
   xmlns="http://www.w3.org/2000/svg"
   xmlns:svg="http://www.w3.org/2000/svg"
   xmlns:rdf="http://www.w3.org/1999/02/22-rdf-syntax-ns#"
   xmlns:cc="http://creativecommons.org/ns#"
   xmlns:dc="http://purl.org/dc/elements/1.1/">
  <defs
     id="defs4" />
  <metadata
     id="metadata7">
    <rdf:RDF>
      <cc:Work
         rdf:about="">
        <dc:format>image/svg+xml</dc:format>
        <dc:type
           rdf:resource="http://purl.org/dc/dcmitype/StillImage" />
        <dc:title />
      </cc:Work>
    </rdf:RDF>
  </metadata>
  <g
     id="layer1"
     style="display:inline"
     transform="translate(0,-1036.3622)">
    <g
       transform="matrix(0.27903303,0,0,0.27903303,-100.53208,912.07901)"
       style="display:inline"
       id="g11331-3-1-1">
      <g
         id="g13408-8"
         style="fill:#737986;fill-opacity:1;stroke:#595e68;stroke-opacity:1" />
    </g>
    <g
       transform="matrix(-1,0,0,1,16.12959,8.0140628)"
       style="display:inline"
       id="g6124-3">
      <g
         transform="scale(-1,1)"
         style="font-size:13.58917427px;font-style:normal;font-weight:normal;line-height:125%;letter-spacing:0px;word-spacing:0px;fill:#ffffff;fill-opacity:1;stroke:none;font-family:Sans"
         id="text6430" />
      <g
         transform="scale(-1,1)"
         style="font-size:13.58917427px;font-style:normal;font-weight:normal;line-height:125%;letter-spacing:0px;word-spacing:0px;fill:#ffffff;fill-opacity:1;stroke:none;display:inline;font-family:Sans"
         id="g6438">
        <path
           style="font-size:13.58917427px;font-style:normal;font-weight:normal;line-height:125%;letter-spacing:0px;word-spacing:0px;fill:#ffffff;fill-opacity:1;stroke:#ffffff;stroke-width:3.17967892;stroke-linecap:round;stroke-linejoin:round;stroke-miterlimit:4;stroke-opacity:1;stroke-dasharray:none;stroke-dashoffset:0;display:inline;font-family:Sans"
           id="path10796-2-6-2-7"
           d="m 401.78171,468.23718 a 13.656706,13.656706 0 1 1 -27.31342,0 13.656706,13.656706 0 1 1 27.31342,0 z"
           transform="matrix(0.32984735,0,0,0.32984735,-136.12701,882.92787)" />
        <path
           style="fill:#a4c589;fill-opacity:1;stroke:#058149;stroke-width:3.17967892000000019;stroke-linecap:round;stroke-linejoin:round;stroke-miterlimit:4;stroke-opacity:1;stroke-dasharray:none;stroke-dashoffset:0;display:inline"
           id="path10796-2-6-2"
           d="m 398.75,468.23718 c 0,5.86803 -4.75697,10.625 -10.625,10.625 -5.86803,0 -10.625,-4.75697 -10.625,-10.625 0,-5.86802 4.75697,-10.625 10.625,-10.625 5.86803,0 10.625,4.75698 10.625,10.625 z"
           transform="matrix(0.32984735,0,0,0.32984735,-136.12701,882.92787)" />
      </g>
    </g>
  </g>
</svg>
