<?xml version="1.0" encoding="UTF-8" standalone="no"?>
<!-- Created with Inkscape (http://www.inkscape.org/) -->

<svg
   width="16"
   height="16"
   id="svg2"
   version="1.1"
   xmlns:xlink="http://www.w3.org/1999/xlink"
   xmlns="http://www.w3.org/2000/svg"
   xmlns:svg="http://www.w3.org/2000/svg"
   xmlns:rdf="http://www.w3.org/1999/02/22-rdf-syntax-ns#"
   xmlns:cc="http://creativecommons.org/ns#"
   xmlns:dc="http://purl.org/dc/elements/1.1/">
  <defs
     id="defs4">
    <linearGradient
       id="linearGradient10798-1-9-3-7-6-8-9-0-9-1-1">
      <stop
         style="stop-color:#75ba7a;stop-opacity:1;"
         offset="0"
         id="stop10800-5-2-1-8-20-6-4-9-8-2-7" />
      <stop
         id="stop10806-6-8-5-3-9-24-8-4-3-2-4"
         offset="0.5"
         style="stop-color:#418a4d;stop-opacity:1" />
      <stop
         style="stop-color:#a4c589;stop-opacity:1"
         offset="1"
         id="stop10802-1-5-3-0-4-8-4-2-9-2-0" />
    </linearGradient>
    <linearGradient
       xlink:href="#linearGradient10798-1-9-3-7-6-8-9-0-9-1-1"
       id="linearGradient3077"
       gradientUnits="userSpaceOnUse"
       x1="388.63736"
       y1="478.18777"
       x2="388.63736"
       y2="462.11539" />
  </defs>
  <metadata
     id="metadata7">
    <rdf:RDF>
      <cc:Work
         rdf:about="">
        <dc:format>image/svg+xml</dc:format>
        <dc:type
           rdf:resource="http://purl.org/dc/dcmitype/StillImage" />
        <dc:title />
      </cc:Work>
    </rdf:RDF>
  </metadata>
  <g
     id="layer1"
     transform="translate(0,-1036.3622)">
    <path
       style="font-size:13.58917427000000100px;font-style:normal;font-weight:normal;line-height:125%;letter-spacing:0px;word-spacing:0px;fill:url(#linearGradient3077);fill-opacity:1;stroke:#058149;stroke-width:4.28791809;stroke-linecap:round;stroke-linejoin:round;stroke-miterlimit:4;stroke-opacity:1;stroke-dasharray:none;stroke-dashoffset:0;display:inline;font-family:Sans"
       id="path10796-2-6-2"
       d="m 398.75,468.23718 a 10.625,10.625 0 1 1 -21.25,0 10.625,10.625 0 1 1 21.25,0 z"
       transform="matrix(0.23321341,0,0,0.23321341,-82.513695,935.16275)" />
    <g
       style="display:inline"
       id="layer1-3"
       transform="translate(1.6252372,17.080298)" />
    <path
       id="rect6501-1-6-1"
       d="m 7.9973152,1042.521 c 0,0 0.1917576,0.6999 0.6766707,1.1849 0.4849113,0.4848 1.1847983,0.6765 1.1847983,0.6765 0,0 -0.6959167,0.1879 -1.1847967,0.6767 -0.4888799,0.4889 -0.6766706,1.1847 -0.6766706,1.1847 0,0 -0.1719097,-0.6798 -0.6766707,-1.1847 -0.504761,-0.5048 -1.1847934,-0.6767 -1.1847934,-0.6767 0,0 0.7117911,-0.2037 1.1847934,-0.6765 0.4730006,-0.4732 0.676669,-1.1849 0.676669,-1.1849 z"
       style="fill:#ffffff;fill-opacity:1;stroke:none;display:inline" />
  </g>
</svg>
