<?xml version="1.0" encoding="UTF-8" standalone="no"?>
<!-- Created with Inkscape (http://www.inkscape.org/) -->

<svg
   width="16"
   height="16"
   id="svg4223"
   version="1.1"
   xmlns:xlink="http://www.w3.org/1999/xlink"
   xmlns="http://www.w3.org/2000/svg"
   xmlns:svg="http://www.w3.org/2000/svg"
   xmlns:rdf="http://www.w3.org/1999/02/22-rdf-syntax-ns#"
   xmlns:cc="http://creativecommons.org/ns#"
   xmlns:dc="http://purl.org/dc/elements/1.1/">
  <defs
     id="defs4225">
    <linearGradient
       id="linearGradient3839">
      <stop
         style="stop-color:#ffffff;stop-opacity:1;"
         offset="0"
         id="stop3843" />
      <stop
         id="stop3849"
         offset="0.5"
         style="stop-color:#ffffff;stop-opacity:1" />
      <stop
         style="stop-color:#c9d8f1;stop-opacity:1"
         offset="1"
         id="stop3845" />
    </linearGradient>
    <linearGradient
       id="linearGradient3062">
      <stop
         id="stop3064"
         offset="0"
         style="stop-color:#285088;stop-opacity:1" />
      <stop
         id="stop3066"
         offset="1"
         style="stop-color:#2868b8;stop-opacity:1" />
    </linearGradient>
    <linearGradient
       xlink:href="#linearGradient3062"
       id="linearGradient3060"
       gradientUnits="userSpaceOnUse"
       gradientTransform="matrix(0.70710678,-0.70710678,0.70710678,0.70710678,-736.22862,307.07276)"
       x1="4"
       y1="1047.3622"
       x2="-0.38173395"
       y2="1042.9805" />
    <radialGradient
       xlink:href="#linearGradient3839"
       id="radialGradient3847"
       cx="8.4915943"
       cy="8.5185575"
       fx="8.4915943"
       fy="8.5185575"
       r="3.5304577"
       gradientUnits="userSpaceOnUse"
       gradientTransform="matrix(0.73188063,0,0,0.73188063,2.2767609,2.2839903)" />
  </defs>
  <metadata
     id="metadata4228">
    <rdf:RDF>
      <cc:Work
         rdf:about="">
        <dc:format>image/svg+xml</dc:format>
        <dc:type
           rdf:resource="http://purl.org/dc/dcmitype/StillImage" />
        <dc:title />
      </cc:Work>
    </rdf:RDF>
  </metadata>
  <g
     id="layer1"
     transform="translate(0,-1036.3622)">
    <g
       id="g3866">
      <path
         transform="translate(2.048645e-8,1036.3622)"
         style="fill:none;fill-opacity:1;stroke:#ffffff;stroke-opacity:1"
         id="path3068-5"
         d="m 12.532205,8.5185575 a 4.0406103,4.0406103 0 1 1 -8.081221,0 4.0406103,4.0406103 0 1 1 8.081221,0 z" />
      <path
         style="fill:url(#radialGradient3847);fill-opacity:1;stroke:#4f504f;stroke-opacity:1"
         id="path3068"
         d="m 11.522052,8.5185575 c 0,1.6736755 -1.356782,3.0304575 -3.0304577,3.0304575 -1.6736756,0 -3.0304577,-1.356782 -3.0304577,-3.0304575 0,-1.6736755 1.3567821,-3.0304577 3.0304577,-3.0304577 1.6736757,0 3.0304577,1.3567822 3.0304577,3.0304577 z"
         transform="translate(0,1036.3622)" />
      <path
         style="fill:url(#linearGradient3060);fill-opacity:1;stroke:none"
         d="m 1,1038.3622 0,6 0,1 1,0 2,0 0,2.6563 3.1875,-3.1875 -3.1875,-3.1875 0,2.7187 -2,0 0,-6 -1,0 z"
         id="path3836" />
    </g>
  </g>
</svg>
