<?xml version="1.0" encoding="UTF-8" standalone="no"?>
<!-- Created with Inkscape (http://www.inkscape.org/) -->

<svg
   width="16"
   height="16"
   id="svg2"
   version="1.1"
   xmlns:xlink="http://www.w3.org/1999/xlink"
   xmlns="http://www.w3.org/2000/svg"
   xmlns:svg="http://www.w3.org/2000/svg"
   xmlns:rdf="http://www.w3.org/1999/02/22-rdf-syntax-ns#"
   xmlns:cc="http://creativecommons.org/ns#"
   xmlns:dc="http://purl.org/dc/elements/1.1/">
  <defs
     id="defs4">
    <linearGradient
       id="linearGradient3785">
      <stop
         style="stop-color:#ffffff;stop-opacity:1"
         offset="0"
         id="stop3787" />
      <stop
         style="stop-color:#e3ebf8;stop-opacity:0.86274511"
         offset="1"
         id="stop3789" />
    </linearGradient>
    <radialGradient
       xlink:href="#linearGradient3785"
       id="radialGradient3791"
       cx="388.125"
       cy="468.23718"
       fx="388.125"
       fy="468.23718"
       r="11.708107"
       gradientUnits="userSpaceOnUse" />
  </defs>
  <metadata
     id="metadata7">
    <rdf:RDF>
      <cc:Work
         rdf:about="">
        <dc:format>image/svg+xml</dc:format>
        <dc:type
           rdf:resource="http://purl.org/dc/dcmitype/StillImage" />
        <dc:title />
      </cc:Work>
    </rdf:RDF>
  </metadata>
  <g
     id="layer1"
     transform="translate(0,-1036.3622)">
    <path
       style="font-size:13.58917427px;font-style:normal;font-weight:normal;line-height:125%;letter-spacing:0px;word-spacing:0px;fill:url(#radialGradient3791);fill-opacity:1;stroke:#696969;stroke-width:2.16621375;stroke-linecap:round;stroke-linejoin:round;stroke-miterlimit:4;stroke-opacity:1;stroke-dasharray:none;stroke-dashoffset:0;display:inline;font-family:Sans"
       id="path10796-2-6-2"
       d="m 398.75,468.23718 a 10.625,10.625 0 0 1 -10.625,10.625 10.625,10.625 0 0 1 -10.625,-10.625 10.625,10.625 0 0 1 10.625,-10.625 10.625,10.625 0 0 1 10.625,10.625 z"
       transform="matrix(0.55482947,0,0,0.55482947,-207.83019,783.09311)" />
    <text
       xml:space="preserve"
       style="font-style:normal;font-weight:normal;line-height:0%;font-family:sans-serif;letter-spacing:0px;word-spacing:0px;fill:#000000;fill-opacity:0.491124;stroke:none;stroke-width:1px;stroke-linecap:butt;stroke-linejoin:miter;stroke-opacity:1"
       x="5"
       y="1045.0854"
       id="text4149"><tspan
         id="tspan4151"
         x="5"
         y="1045.0854"
         style="font-size:10px;line-height:1.25"> </tspan></text>
    <text
       xml:space="preserve"
       style="font-style:normal;font-weight:normal;line-height:0%;font-family:sans-serif;letter-spacing:0px;word-spacing:0px;fill:#000000;fill-opacity:1;stroke:none;stroke-width:1px;stroke-linecap:butt;stroke-linejoin:miter;stroke-opacity:1"
       x="5.8035712"
       y="1041.2908"
       id="text4153"><tspan
         id="tspan4155"
         x="5.8035712"
         y="1041.2908"
         style="font-size:10px;line-height:1.25"> </tspan></text>
    <g
       transform="scale(1.1332666,0.88240494)"
       style="font-style:normal;font-variant:normal;font-weight:normal;font-stretch:normal;font-size:12.40107059px;line-height:125%;font-family:KaiTi;-inkscape-font-specification:KaiTi;letter-spacing:0px;word-spacing:0px;fill:#000000;fill-opacity:0.44970416;stroke:none;stroke-width:1px;stroke-linecap:butt;stroke-linejoin:miter;stroke-opacity:1"
       id="text4157">
      <path
         d="m 9.6881394,1185.9455 -1.1626004,0 -1.7439005,-3.5846 -1.2594837,0 0,3.5846 -1.1141587,0 0,-8.2835 2.4220841,0 q 1.1626003,0 1.8892256,0.5813 0.7266252,0.5329 0.7266252,1.7924 0,0.9688 -0.4844168,1.5016 -0.4844168,0.5329 -1.1141587,0.6782 l 1.8407839,3.73 z m -1.3563671,-5.9098 q 0,-0.6782 -0.4359751,-1.0658 -0.3875335,-0.3875 -1.3079254,-0.3875 l -1.065717,0 0,2.8581 1.3563671,0 q 0.5813001,0 1.0172753,-0.2907 0.4359751,-0.3391 0.4359751,-1.1141 z"
         style=""
         id="path4151" />
    </g>
  </g>
</svg>
