<?xml version="1.0" encoding="UTF-8" standalone="no"?>
<!-- Created with Inkscape (http://www.inkscape.org/) -->

<svg
   width="16"
   height="16"
   id="svg2"
   version="1.1"
   xmlns:xlink="http://www.w3.org/1999/xlink"
   xmlns="http://www.w3.org/2000/svg"
   xmlns:svg="http://www.w3.org/2000/svg"
   xmlns:rdf="http://www.w3.org/1999/02/22-rdf-syntax-ns#"
   xmlns:cc="http://creativecommons.org/ns#"
   xmlns:dc="http://purl.org/dc/elements/1.1/">
  <defs
     id="defs4">
    <linearGradient
       id="linearGradient4185">
      <stop
         id="stop4187"
         offset="0"
         style="stop-color:#a17748;stop-opacity:1" />
      <stop
         style="stop-color:#c8ab37;stop-opacity:1"
         offset="0.61445522"
         id="stop4189" />
      <stop
         id="stop4191"
         offset="1"
         style="stop-color:#c7af93;stop-opacity:1" />
    </linearGradient>
    <linearGradient
       xlink:href="#linearGradient4185"
       id="linearGradient4199"
       x1="376.4169"
       y1="468.23718"
       x2="399.8331"
       y2="468.23718"
       gradientUnits="userSpaceOnUse" />
  </defs>
  <metadata
     id="metadata7">
    <rdf:RDF>
      <cc:Work
         rdf:about="">
        <dc:format>image/svg+xml</dc:format>
        <dc:type
           rdf:resource="http://purl.org/dc/dcmitype/StillImage" />
        <dc:title />
      </cc:Work>
    </rdf:RDF>
  </metadata>
  <g
     id="layer1"
     transform="translate(0,-1036.3622)">
    <path
       style="font-size:13.58917427px;font-style:normal;font-weight:normal;line-height:125%;letter-spacing:0px;word-spacing:0px;fill-opacity:1.0;stroke:#8d7d3c;stroke-width:2.16621375;stroke-linecap:round;stroke-linejoin:round;stroke-miterlimit:4;stroke-opacity:1;stroke-dasharray:none;stroke-dashoffset:0;display:inline;font-family:Sans;fill:url(#linearGradient4199)"
       id="path10796-2-6-2"
       d="m 398.75,468.23718 a 10.625,10.625 0 0 1 -10.625,10.625 10.625,10.625 0 0 1 -10.625,-10.625 10.625,10.625 0 0 1 10.625,-10.625 10.625,10.625 0 0 1 10.625,10.625 z"
       transform="matrix(0.55482947,0,0,0.55482947,-207.83019,783.0574)" />
    <g
       transform="scale(1.1435005,0.87450772)"
       style="font-style:normal;font-variant:normal;font-weight:normal;font-stretch:normal;font-size:12.30672073px;line-height:125%;font-family:KaiTi;-inkscape-font-specification:KaiTi;letter-spacing:0px;word-spacing:0px;fill:#ffffff;fill-opacity:1;stroke:none;stroke-width:1px;stroke-linecap:butt;stroke-linejoin:miter;stroke-opacity:1"
       id="text4162">
      <path
         d="m 9.6683868,1196.6957 -1.1537551,0 -1.7306326,-3.5574 -1.2499013,0 0,3.5574 -1.1056819,0 0,-8.2205 2.4036564,0 q 1.153755,0 1.874852,0.5768 0.7210969,0.5288 0.7210969,1.7787 0,0.9615 -0.4807313,1.4903 -0.4807313,0.5288 -1.1056819,0.673 l 1.8267788,3.7017 z m -1.3460476,-5.865 q 0,-0.673 -0.4326581,-1.0576 -0.384585,-0.3845 -1.2979745,-0.3845 l -1.0576088,0 0,2.8363 1.3460476,0 q 0.5768775,0 1.0095357,-0.2885 0.4326581,-0.3365 0.4326581,-1.1057 z"
         style=""
         id="path4147" />
    </g>
  </g>
</svg>
