<?xml version="1.0" encoding="UTF-8" standalone="no"?>
<!-- Created with Inkscape (http://www.inkscape.org/) -->

<svg
   width="75"
   height="66"
   id="svg2"
   version="1.1"
   xmlns:xlink="http://www.w3.org/1999/xlink"
   xmlns="http://www.w3.org/2000/svg"
   xmlns:svg="http://www.w3.org/2000/svg"
   xmlns:rdf="http://www.w3.org/1999/02/22-rdf-syntax-ns#"
   xmlns:cc="http://creativecommons.org/ns#"
   xmlns:dc="http://purl.org/dc/elements/1.1/">
  <defs
     id="defs4">
    <linearGradient
       xlink:href="#linearGradient4972-7"
       id="linearGradient4978"
       x1="88.220116"
       y1="1032.2668"
       x2="163.22012"
       y2="1032.2668"
       gradientUnits="userSpaceOnUse"
       gradientTransform="translate(-88.220116,-999.2669)" />
    <linearGradient
       id="linearGradient4972-7">
      <stop
         style="stop-color:#b8ccf1;stop-opacity:0.10196079"
         offset="0"
         id="stop4974-8" />
      <stop
         style="stop-color:#6e97e2;stop-opacity:0.10196079"
         offset="1"
         id="stop4976-1" />
    </linearGradient>
    <linearGradient
       xlink:href="#linearGradient4964-3"
       id="linearGradient4970"
       x1="118.38584"
       y1="1032.1835"
       x2="163.22012"
       y2="1032.2668"
       gradientUnits="userSpaceOnUse"
       gradientTransform="translate(-88.220117,-999.2669)" />
    <linearGradient
       id="linearGradient4964-3">
      <stop
         style="stop-color:#ffffff;stop-opacity:0.349"
         offset="0"
         id="stop4966-1" />
      <stop
         style="stop-color:#91ade6;stop-opacity:1"
         offset="1"
         id="stop4968-1" />
    </linearGradient>
    <linearGradient
       xlink:href="#linearGradient4956-2"
       id="linearGradient4962"
       x1="88.220116"
       y1="1042.7972"
       x2="163.22012"
       y2="1042.7972"
       gradientUnits="userSpaceOnUse"
       gradientTransform="translate(-88.220116,-999.2669)" />
    <linearGradient
       id="linearGradient4956-2">
      <stop
         style="stop-color:#fcfdfe;stop-opacity:0.25641027"
         offset="0"
         id="stop4958-5" />
      <stop
         style="stop-color:#98aae7;stop-opacity:0.40392157"
         offset="1"
         id="stop4960-6" />
    </linearGradient>
    <linearGradient
       xlink:href="#linearGradient4994"
       id="linearGradient6375-6"
       x1="50.702839"
       y1="1052.4476"
       x2="22.530088"
       y2="1014.1386"
       gradientUnits="userSpaceOnUse"
       gradientTransform="matrix(0.66235895,0,0,0.70707433,24.086819,298.29004)" />
    <linearGradient
       id="linearGradient4994">
      <stop
         id="stop4996"
         offset="0"
         style="stop-color:#ffffff;stop-opacity:1" />
      <stop
         id="stop4998"
         offset="1"
         style="stop-color:#dbe2eb;stop-opacity:1" />
    </linearGradient>
    <linearGradient
       xlink:href="#linearGradient4902"
       id="linearGradient4238"
       gradientUnits="userSpaceOnUse"
       gradientTransform="matrix(2.2925445,0,0,2.4122725,23.897235,-1493.2227)"
       x1="10.544736"
       y1="1038.5779"
       x2="10.544736"
       y2="1052.3228" />
    <linearGradient
       id="linearGradient4902">
      <stop
         id="stop4904"
         offset="0"
         style="stop-color:#c7b571;stop-opacity:1;" />
      <stop
         id="stop4906"
         offset="1"
         style="stop-color:#9a9a8f;stop-opacity:1" />
    </linearGradient>
    <linearGradient
       xlink:href="#linearGradient6411"
       id="linearGradient4240"
       gradientUnits="userSpaceOnUse"
       gradientTransform="matrix(0.66235895,0,0,0.70707433,24.086819,298.29002)"
       x1="52.166088"
       y1="1020.8994"
       x2="47.429596"
       y2="1023.1616" />
    <linearGradient
       id="linearGradient6411">
      <stop
         style="stop-color:#4f605c;stop-opacity:1"
         offset="0"
         id="stop6413" />
      <stop
         style="stop-color:#dbe2eb;stop-opacity:0"
         offset="1"
         id="stop6415" />
    </linearGradient>
    <linearGradient
       xlink:href="#linearGradient4258"
       id="linearGradient4264"
       x1="59.220116"
       y1="1021.2669"
       x2="62.220116"
       y2="1025.2668"
       gradientUnits="userSpaceOnUse"
       gradientTransform="matrix(1.1922461,0,0,1.2728781,-15.638916,-286.33921)" />
    <linearGradient
       id="linearGradient4258">
      <stop
         style="stop-color:#f4ae5f;stop-opacity:1;"
         offset="0"
         id="stop4260" />
      <stop
         id="stop4266"
         offset="0.41542953"
         style="stop-color:#eec290;stop-opacity:1" />
      <stop
         style="stop-color:#c7700e;stop-opacity:1"
         offset="1"
         id="stop4262" />
    </linearGradient>
    <linearGradient
       xlink:href="#linearGradient4527"
       id="linearGradient4533"
       x1="29.521629"
       y1="29.827848"
       x2="31.546745"
       y2="39.175972"
       gradientUnits="userSpaceOnUse"
       gradientTransform="matrix(1,0,0,-1,-0.41994314,1068.4388)" />
    <linearGradient
       id="linearGradient4527">
      <stop
         style="stop-color:#68b367;stop-opacity:1"
         offset="0"
         id="stop4529" />
      <stop
         style="stop-color:#5eaa6e;stop-opacity:1"
         offset="1"
         id="stop4531" />
    </linearGradient>
    <linearGradient
       xlink:href="#linearGradient4578"
       id="linearGradient4584"
       x1="42.780308"
       y1="1025.5621"
       x2="40.143147"
       y2="1039.7532"
       gradientUnits="userSpaceOnUse"
       gradientTransform="matrix(1,0,0,-1,-8.6400594,2067.7057)" />
    <linearGradient
       id="linearGradient4578">
      <stop
         style="stop-color:#c5f0b4;stop-opacity:1"
         offset="0"
         id="stop4580" />
      <stop
         style="stop-color:#80c171;stop-opacity:1"
         offset="1"
         id="stop4582" />
    </linearGradient>
    <linearGradient
       xlink:href="#linearGradient4258"
       id="linearGradient4341-5"
       gradientUnits="userSpaceOnUse"
       x1="59.220116"
       y1="1021.2669"
       x2="62.220116"
       y2="1025.2668"
       gradientTransform="matrix(0.88977825,0,0,0.88984413,-36.401252,99.537447)" />
    <linearGradient
       xlink:href="#linearGradient4994"
       id="linearGradient4630"
       gradientUnits="userSpaceOnUse"
       gradientTransform="matrix(0.49432125,0,0,0.49430182,-6.7537695,508.24031)"
       x1="50.702839"
       y1="1052.4476"
       x2="22.530088"
       y2="1014.1386" />
    <linearGradient
       xlink:href="#linearGradient4902"
       id="linearGradient4632"
       gradientUnits="userSpaceOnUse"
       gradientTransform="matrix(1.7109356,0,0,1.6863724,-6.9055141,-744.11428)"
       x1="10.544736"
       y1="1038.5779"
       x2="10.544736"
       y2="1052.3228" />
    <linearGradient
       xlink:href="#linearGradient6411"
       id="linearGradient4634"
       gradientUnits="userSpaceOnUse"
       gradientTransform="matrix(0.49432125,0,0,0.49430182,-6.7537695,508.24029)"
       x1="52.166088"
       y1="1020.8994"
       x2="47.429596"
       y2="1023.1616" />
    <linearGradient
       xlink:href="#linearGradient4994"
       id="linearGradient8635"
       gradientUnits="userSpaceOnUse"
       gradientTransform="matrix(0.49432125,0,0,0.49430182,-6.7537695,508.24031)"
       x1="50.702839"
       y1="1052.4476"
       x2="22.530088"
       y2="1014.1386" />
    <linearGradient
       xlink:href="#linearGradient4902"
       id="linearGradient8637"
       gradientUnits="userSpaceOnUse"
       gradientTransform="matrix(1.7109356,0,0,1.6863724,-6.9055141,-744.11428)"
       x1="10.544736"
       y1="1038.5779"
       x2="10.544736"
       y2="1052.3228" />
    <linearGradient
       xlink:href="#linearGradient6411"
       id="linearGradient8639"
       gradientUnits="userSpaceOnUse"
       gradientTransform="matrix(0.49432125,0,0,0.49430182,-6.7537695,508.24029)"
       x1="52.166088"
       y1="1020.8994"
       x2="47.429596"
       y2="1023.1616" />
    <linearGradient
       xlink:href="#linearGradient4258"
       id="linearGradient8641"
       gradientUnits="userSpaceOnUse"
       gradientTransform="matrix(0.88977825,0,0,0.88984413,-36.401252,99.537447)"
       x1="59.220116"
       y1="1021.2669"
       x2="62.220116"
       y2="1025.2668" />
    <linearGradient
       xlink:href="#linearGradient4308"
       id="linearGradient4314"
       x1="49.217129"
       y1="1041.0833"
       x2="75.020309"
       y2="1023.2908"
       gradientUnits="userSpaceOnUse" />
    <linearGradient
       id="linearGradient4308">
      <stop
         style="stop-color:#d5d2d9;stop-opacity:1"
         offset="0"
         id="stop4310" />
      <stop
         style="stop-color:#ffffff;stop-opacity:0.328"
         offset="1"
         id="stop4312" />
    </linearGradient>
    <filter
       style="color-interpolation-filters:sRGB"
       id="filter4344-8"
       x="-0.027383926"
       width="1.0547679"
       y="-0.085576576"
       height="1.1711532">
      <feGaussianBlur
         stdDeviation="0.57051052"
         id="feGaussianBlur4346-1" />
    </filter>
    <linearGradient
       xlink:href="#linearGradient5517"
       id="linearGradient4314-5"
       x1="49.217129"
       y1="1041.0833"
       x2="75.020309"
       y2="1023.2908"
       gradientUnits="userSpaceOnUse" />
    <linearGradient
       id="linearGradient5517">
      <stop
         id="stop5519"
         offset="0"
         style="stop-color:#c5c3d4;stop-opacity:0.72941178" />
      <stop
         id="stop5521"
         offset="1"
         style="stop-color:#c5c3d4;stop-opacity:0.72941178" />
    </linearGradient>
    <filter
       style="color-interpolation-filters:sRGB"
       id="filter4344"
       x="-0.027383926"
       width="1.0547679"
       y="-0.085576576"
       height="1.1711532">
      <feGaussianBlur
         stdDeviation="0.57051052"
         id="feGaussianBlur4346" />
    </filter>
  </defs>
  <metadata
     id="metadata7">
    <rdf:RDF>
      <cc:Work
         rdf:about="">
        <dc:format>image/svg+xml</dc:format>
        <dc:type
           rdf:resource="http://purl.org/dc/dcmitype/StillImage" />
        <dc:title />
      </cc:Work>
    </rdf:RDF>
  </metadata>
  <g
     id="layer2"
     style="display:inline">
    <path
       id="rect4113-1"
       d="M 75,0 75,66 1e-6,66 C 1e-6,41.2048 50.00969,0 75,0 Z"
       style="display:inline;fill:url(#linearGradient4978);fill-opacity:1;stroke:none" />
    <path
       id="rect4113-1-0"
       d="M 75,21.0607 75,66 1e-6,66 C 10.625001,47.804 43.509694,25.4357 75,21.0607 Z"
       style="display:inline;opacity:0.40400002;fill:url(#linearGradient4962);fill-opacity:1;stroke:none" />
    <g
       id="g11331-3-1-1-7"
       style="display:inline"
       transform="matrix(0.27903303,0,0,0.27903303,-14.618136,-107.52874)">
      <g
         style="fill:#737986;fill-opacity:1;stroke:#595e68;stroke-opacity:1"
         id="g13408-8-2" />
    </g>
    <path
       id="rect4113-1-7"
       d="M 75,4.0000001e-7 75,66 30.000003,66 C 30.000003,46.1545 47.70944,9.2500004 75,4e-7 Z"
       style="display:inline;opacity:0.18399999;fill:url(#linearGradient4970);fill-opacity:1;stroke:none" />
  </g>
  <g
     id="layer3"
     style="display:inline" />
  <g
     id="layer1"
     style="display:inline"
     transform="translate(0,-986.3622)">
    <path
       id="rect4001-3-4-5"
       d="m 61.725004,1022.8099 21.27431,-0.1009 1.654984,3.7793 -20.678174,12.1198 -29.322882,0.1009 z"
       style="display:inline;opacity:0.62999998;fill:url(#linearGradient4314-5);fill-opacity:1;stroke:none;filter:url(#filter4344)"
       transform="matrix(0.81385308,0,0,0.61823795,8.9117005,402.34637)" />
    <path
       id="rect4001-3-4-5-8"
       d="m 61.725004,1022.8099 21.27431,-0.1009 1.654984,3.7793 -20.678174,12.1198 -29.322882,0.1009 z"
       style="display:inline;opacity:0.32900002;fill:url(#linearGradient4314);fill-opacity:1;stroke:none;filter:url(#filter4344-8)"
       transform="matrix(0.73441351,0,0,0.54901657,-24.444232,466.7572)" />
    <g
       transform="matrix(0.92787456,0,0,0.92766861,-334.80763,585.97703)"
       style="display:inline"
       id="g11331-3-1-1">
      <g
         id="g13408-8"
         style="fill:#737986;fill-opacity:1;stroke:#595e68;stroke-width:0.30075619;stroke-opacity:1" />
    </g>
    <g
       id="text6430-2"
       style="font-style:normal;font-weight:normal;font-size:13.58917427px;line-height:125%;font-family:Sans;letter-spacing:0px;word-spacing:0px;fill:#ffffff;fill-opacity:1;stroke:none"
       transform="matrix(3.3253216,0,0,3.3245835,49.654056,-2426.2108)" />
    <g
       transform="matrix(3.1391206,0,0,3.5217855,49.654056,-2426.2108)"
       style="font-style:normal;font-weight:normal;font-size:15.56941891px;line-height:125%;font-family:Sans;letter-spacing:0px;word-spacing:0px;fill:#ffffff;fill-opacity:1;stroke:none"
       id="text3782-3" />
    <g
       id="g11331-3-1-1-00"
       style="display:inline"
       transform="matrix(0,-0.14879357,0.14879357,0,3.0151033,1093.2759)">
      <g
         style="fill:#737986;fill-opacity:1;stroke:#595e68;stroke-opacity:1"
         id="g13408-8-1" />
    </g>
    <g
       id="g7590-7-0"
       style="display:inline"
       transform="matrix(1.122791,0,0,1.122791,51.605476,-118.01412)" />
    <g
       id="g7827-7-5"
       style="display:inline"
       transform="matrix(0.45489265,0,0,0.45489265,119.65899,561.31682)" />
    <g
       transform="matrix(0.27903303,0,0,0.27903303,71.714017,852.06346)"
       style="display:inline"
       id="g11331-3-1-1-0">
      <g
         id="g13408-8-4"
         style="fill:#737986;fill-opacity:1;stroke:#595e68;stroke-opacity:1" />
    </g>
    <g
       id="g8568"
       transform="matrix(1.1120937,0,0,1.183099,-0.241874,-184.4422)">
      <path
         style="display:inline;fill:url(#linearGradient4630);fill-opacity:1;stroke:none"
         d="m 2.7402587,1008.1045 12.6520103,0.055 3.793989,4.2591 0.252832,16.8937 -16.8816202,0 z"
         id="rect4001-3-4-3-5" />
      <path
         style="fill:none;stroke:url(#linearGradient4632);stroke-width:0.87180382;stroke-linecap:butt;stroke-linejoin:miter;stroke-miterlimit:4;stroke-dashoffset:0;stroke-opacity:1"
         d="m 2.4999821,1007.8643 12.4311109,0 c 0,0 3.167964,0.7101 2.253474,2.3418 -0.02836,0.051 2.315433,2.712 2.315433,2.712 l 0,15.9441 -17.0000179,0 z"
         id="rect4001-1-1-6" />
      <path
         style="display:inline;fill:url(#linearGradient4634);fill-opacity:1;stroke:none"
         d="m 14.638089,1007.7925 4.361912,4.9847 0,5.18 -6.542591,-4.5311 c 0.897707,-1.8172 1.548066,-3.7153 2.180667,-5.6336 z"
         id="rect4001-3-9-0-0-4" />
      <path
         style="display:inline;fill:url(#linearGradient4341-5);fill-opacity:1;fill-rule:evenodd;stroke:none;stroke-width:1px;stroke-linecap:butt;stroke-linejoin:miter;stroke-opacity:1"
         d="m 14.513385,1007.3621 c 1.006407,1.3083 2.220028,3.058 1.320521,5.9172 C 17.90376,1012.1622 20,1012.7952 20,1012.7952 c 0,-2.6696 -3.348,-5.5589 -5.486615,-5.4331 z"
         id="path5675-4-4-9" />
    </g>
    <path
       id="rect4001-3-4"
       d="m 36.459724,1012.819 16.29082,-0.1952 6.27458,7.3158 0.0609,23.4616 -22.504471,0.1952 z"
       style="display:inline;fill:url(#linearGradient6375-6);fill-opacity:1;stroke:none" />
    <path
       id="rect4001-1"
       d="m 36.5,1012.896 16.069976,0 c 0,0 4.831789,1.013 3.606431,3.347 -0.038,0.073 3.323597,3.9796 3.323597,3.9796 l 0,23.6381 -23.000004,0 z"
       style="fill:none;stroke:url(#linearGradient4238);stroke-width:1;stroke-linecap:butt;stroke-linejoin:miter;stroke-miterlimit:4;stroke-dashoffset:0;stroke-opacity:1" />
    <path
       id="rect4001-3-9-0"
       d="m 52.750544,1012.8746 6.24946,7.1305 0,7.4102 -9.171466,-6.482 c 1.202872,-2.5994 2.07431,-5.3145 2.921956,-8.0587 z"
       style="display:inline;fill:url(#linearGradient4240);fill-opacity:1;stroke:none" />
    <path
       id="path5675-4"
       d="m 52.58345,1012.3681 c 1.348521,1.8713 2.974695,4.2652 1.769413,8.3553 2.773472,-1.598 5.647141,-0.7504 5.647141,-0.7504 0,-3.8185 -4.550947,-7.7849 -7.416554,-7.6049 z"
       style="display:inline;fill:url(#linearGradient4264);fill-opacity:1;fill-rule:evenodd;stroke:none;stroke-width:1px;stroke-linecap:butt;stroke-linejoin:miter;stroke-opacity:1" />
    <path
       style="fill:none;fill-rule:evenodd;stroke:#bbc5d8;stroke-width:2;stroke-linecap:butt;stroke-linejoin:miter;stroke-miterlimit:4;stroke-dasharray:none;stroke-opacity:1"
       d="m 39.000004,1040.3774 8,0"
       id="path4696" />
    <path
       style="display:inline;fill:none;fill-rule:evenodd;stroke:#bbc5d8;stroke-width:2;stroke-linecap:butt;stroke-linejoin:miter;stroke-miterlimit:4;stroke-dasharray:none;stroke-opacity:1"
       d="m 39.000004,1037.3774 11,0"
       id="path4696-5" />
    <path
       style="display:inline;fill:none;fill-rule:evenodd;stroke:#bbc5d8;stroke-width:2;stroke-linecap:butt;stroke-linejoin:miter;stroke-miterlimit:4;stroke-dasharray:none;stroke-opacity:1"
       d="m 39.000004,1034.3774 12,0"
       id="path4696-4" />
    <path
       style="display:inline;fill:none;fill-rule:evenodd;stroke:#bbc5d8;stroke-width:2;stroke-linecap:butt;stroke-linejoin:miter;stroke-miterlimit:4;stroke-dasharray:none;stroke-opacity:1"
       d="m 39.000004,1020.3774 11,0"
       id="path4696-0" />
    <path
       style="display:inline;fill:none;fill-rule:evenodd;stroke:#bbc5d8;stroke-width:2;stroke-linecap:butt;stroke-linejoin:miter;stroke-miterlimit:4;stroke-dasharray:none;stroke-opacity:1"
       d="m 39.000004,1023.3774 11,0"
       id="path4696-9" />
    <path
       style="display:inline;fill:none;fill-rule:evenodd;stroke:#bbc5d8;stroke-width:2;stroke-linecap:butt;stroke-linejoin:miter;stroke-miterlimit:4;stroke-dasharray:none;stroke-opacity:1"
       d="m 39.000004,1026.3774 11,0"
       id="path4696-8" />
    <path
       style="display:inline;fill:none;fill-rule:evenodd;stroke:#bbc5d8;stroke-width:2;stroke-linecap:butt;stroke-linejoin:miter;stroke-miterlimit:4;stroke-dasharray:none;stroke-opacity:1"
       d="m 39.000004,1029.3774 9,0"
       id="path4696-2" />
    <g
       style="display:inline"
       id="g8568-5"
       transform="matrix(1.1708349,0,0,1.138736,5.583302,-143.75277)">
      <path
         style="display:inline;fill:url(#linearGradient8635);fill-opacity:1;stroke:none"
         d="m 2.7402587,1008.1045 12.6520103,0.055 3.793989,4.2591 0.252832,16.8937 -16.8816202,0 z"
         id="rect4001-3-4-3-5-9" />
      <path
         style="fill:none;stroke:url(#linearGradient8637);stroke-width:0.86604542;stroke-linecap:butt;stroke-linejoin:miter;stroke-miterlimit:4;stroke-dashoffset:0;stroke-opacity:1"
         d="m 2.4999821,1007.8643 12.4311109,0 c 0,0 3.167964,0.7101 2.253474,2.3418 -0.02836,0.051 2.315433,2.712 2.315433,2.712 l 0,15.9441 -17.0000179,0 z"
         id="rect4001-1-1-6-5" />
      <path
         style="display:inline;fill:url(#linearGradient8639);fill-opacity:1;stroke:none"
         d="m 14.638089,1007.7925 4.361912,4.9847 0,5.18 -6.542591,-4.5311 c 0.897707,-1.8172 1.548066,-3.7153 2.180667,-5.6336 z"
         id="rect4001-3-9-0-0-4-4" />
      <path
         style="display:inline;fill:url(#linearGradient8641);fill-opacity:1;fill-rule:evenodd;stroke:none;stroke-width:1px;stroke-linecap:butt;stroke-linejoin:miter;stroke-opacity:1"
         d="m 14.513385,1007.3621 c 1.006407,1.3083 2.220028,3.058 1.320521,5.9172 C 17.90376,1012.1622 20,1012.7952 20,1012.7952 c 0,-2.6696 -3.348,-5.5589 -5.486615,-5.4331 z"
         id="path5675-4-4-9-6" />
    </g>
    <path
       id="path9934"
       style="font-style:normal;font-variant:normal;font-weight:bold;font-stretch:normal;font-size:medium;line-height:125%;font-family:Arial;letter-spacing:0px;word-spacing:0px;fill:#41587c;fill-opacity:1;stroke:none;stroke-width:1px;stroke-linecap:butt;stroke-linejoin:miter;stroke-opacity:1"
       d="m 10.923704,1017.4663 0,-2.123 q 0.401001,-0.036 0.604248,-0.1945 0.203247,-0.1594 0.351562,-0.5307 0.148316,-0.3803 0.203247,-0.9465 0.04395,-0.4244 0.04395,-1.4771 0,-1.716 0.09888,-2.3883 0.09888,-0.6811 0.357055,-1.0879 0.258179,-0.4156 0.752564,-0.6545 0.335083,-0.1594 1.054687,-0.1594 l 0.291138,0 0,2.114 q -0.609741,0 -0.785522,0.1141 -0.170289,0.1063 -0.252686,0.3361 -0.0824,0.221 -0.0824,0.7695 0,0.5574 -0.04944,2.1141 -0.02747,0.8756 -0.142822,1.4241 -0.115357,0.5396 -0.296631,0.8933 -0.175781,0.3538 -0.543823,0.7342 0.324096,0.3007 0.527343,0.7077 0.208741,0.398 0.318604,0.9728 0.109863,0.5751 0.142822,1.5391 0.03845,1.4683 0.03845,1.8753 0,0.5837 0.08789,0.8136 0.08789,0.2301 0.263672,0.345 0.181274,0.1243 0.774536,0.1243 l 0,2.1228 -0.291138,0 q -0.741577,0 -1.137085,-0.1945 -0.395507,-0.1858 -0.670166,-0.628 -0.269165,-0.4424 -0.362549,-1.0969 -0.09338,-0.6457 -0.09338,-2.0432 0,-1.6275 -0.08789,-2.114 -0.12085,-0.7076 -0.368042,-1.0084 -0.241699,-0.3095 -0.74707,-0.3537 z" />
    <path
       id="path9936"
       style="font-style:normal;font-variant:normal;font-weight:bold;font-stretch:normal;font-size:medium;line-height:125%;font-family:Arial;letter-spacing:0px;word-spacing:0px;fill:#41587c;fill-opacity:1;stroke:none;stroke-width:1px;stroke-linecap:butt;stroke-linejoin:miter;stroke-opacity:1"
       d="m 16,1015.3622 0,-2 8,0 0,2 z m 0,4 0,-2 8,0 0,2 z" />
    <g
       id="g8662"
       transform="matrix(1.0520896,0,0,1.0534376,-1.7418313,-56.859589)">
      <path
         style="fill:url(#linearGradient4533);fill-opacity:1;fill-rule:evenodd;stroke:#398a43;stroke-width:0.94988102px;stroke-linecap:butt;stroke-linejoin:miter;stroke-opacity:1"
         d="m 40.244943,1041.4693 c -0.24182,0.7378 -4.276215,-4.6418 -4.276215,-4.6418 -11.44876,7.9356 -17.573348,-1.4122 -16.632852,-8.3285 0.287455,-2.114 2.873263,9.5491 13.24418,4.9398 0,0 -6.161054,-4.0913 -5.456972,-5.1523 0.390532,-0.5886 13.008987,-0.7195 13.731155,0.03 0.722169,0.75 -0.343071,12.3401 -0.609296,13.1524 z"
         id="path4522" />
      <path
         style="display:inline;fill:none;fill-opacity:1;fill-rule:evenodd;stroke:url(#linearGradient4584);stroke-width:0.94988102px;stroke-linecap:butt;stroke-linejoin:miter;stroke-opacity:1"
         d="m 40.029866,1028.5266 c 0.335464,3.4409 -0.540551,10.8513 -0.558812,11.097 -0.130143,-0.1351 -3.305251,-4.1177 -3.305251,-4.1177 -13.489832,9.4517 -15.979945,-3.8837 -15.944315,-4.5632 0,0 4.159907,8.1407 14.425918,2.5964 -3.722931,-2.2 -6.36447,-4.7334 -6.416153,-4.8694"
         id="path4522-3" />
    </g>
  </g>
</svg>
