<svg version="1.2" xmlns="http://www.w3.org/2000/svg" viewBox="0 0 75 66" width="75" height="66">
	<defs>
		<linearGradient id="g1" x2="1" gradientUnits="userSpaceOnUse" gradientTransform="matrix(75,0,0,66,0,33)">
			<stop offset="0" stop-color="#b8ccf1" stop-opacity=".1"/>
			<stop offset="1" stop-color="#6e97e2" stop-opacity=".1"/>
		</linearGradient>
		<linearGradient id="g2" x2="1" gradientUnits="userSpaceOnUse" gradientTransform="matrix(75,0,0,44.939,0,43.53)">
			<stop offset="0" stop-color="#fcfdfe" stop-opacity=".26"/>
			<stop offset="1" stop-color="#98aae7" stop-opacity=".4"/>
		</linearGradient>
		<linearGradient id="g3" x2="1" gradientUnits="userSpaceOnUse" gradientTransform="matrix(44.834,.083,-0.122,65.84,30.166,32.917)">
			<stop offset="0" stop-color="#ffffff" stop-opacity=".35"/>
			<stop offset="1" stop-color="#91ade6" stop-opacity="1"/>
		</linearGradient>
		<filter x="-50%" y="-50%" width="200%" height="200%" id="f1"> <feGaussianBlur stdDeviation="1.5"/> </filter>
		<filter x="-50%" y="-50%" width="200%" height="200%" id="f2"> <feGaussianBlur stdDeviation="5.3"/> </filter>
		<filter x="-50%" y="-50%" width="200%" height="200%" id="f3"> <feGaussianBlur stdDeviation="1.2"/> </filter>
		<filter x="-50%" y="-50%" width="200%" height="200%" id="f4"> <feGaussianBlur stdDeviation=".9"/> </filter>
		<filter x="-50%" y="-50%" width="200%" height="200%" id="f5"> <feGaussianBlur stdDeviation=".4"/> </filter>
		<linearGradient id="g4" x2="1" gradientUnits="userSpaceOnUse" gradientTransform="matrix(-20.777,.189,-0.233,-25.682,31.581,34.01)">
			<stop offset="0" stop-color="#4aa118"/>
			<stop offset=".798" stop-color="#4aa118"/>
			<stop offset="1" stop-color="#9edc70"/>
		</linearGradient>
	</defs>
	<style>
		.s0 { fill: url(#g1) } 
		.s1 { opacity: .4;fill: url(#g2) } 
		.s2 { opacity: .18;fill: url(#g3) } 
		.s3 { opacity: .75;filter: url(#f1);fill: #cacaca } 
		.s4 { fill: #770000 } 
		.s5 { filter: url(#f2);fill: #ffffff } 
		.s6 { filter: url(#f3);fill: #770000 } 
		.s7 { filter: url(#f4);fill: #770000 } 
		.s8 { filter: url(#f5);fill: #770000 } 
		.s9 { fill: #ffffff;stroke: url(#g4) } 
		.s10 { filter: url(#f3);fill: #d7f1c6 } 
		.s11 { fill: none;stroke: #657a32;stroke-linecap: round;stroke-linejoin: round;stroke-width: 1.3 } 
	</style>
	<g id="layer2">
		<path id="rect4113-1" class="s0" d="m75 0v66h-75c0-24.8 50.01-66 75-66z"/>
		<path id="rect4113-1-0" class="s1" d="m75 21.06v44.94h-75c10.63-18.2 43.51-40.56 75-44.94z"/>
		<path id="rect4113-1-7" class="s2" d="m75 0v66h-45c0-19.85 17.71-56.75 45-66z"/>
	</g>
	<g id="layer1">
		<path id="path3007-0" class="s3" d="m42.01 53.51l0.11 0.9 3.11 0.74-0.86 0.99-3.63 0.44-7.04 0.38-8.33 0.15-10.35-0.34c0 0-8.43-1.05-8.43-1.11 0-0.07 1.6-1.59 2.14-1.61 0.53-0.02 2.84-0.52 2.84-0.52l4.04-0.25 5.88-0.22 5.71-0.05 6.17 0.07c0 0 4.38 0.24 5.02 0.24 0.64 0 2.95 0.18 2.95 0.18z"/>
		<path id="path10796-2-6-2" fill-rule="evenodd" class="s4" d="m24.42 54.5c-11.02 0-19.92-8.94-19.92-20 0-11.06 8.9-20 19.92-20 11.02 0 19.93 8.94 19.93 20 0 11.06-8.91 20-19.93 20z"/>
		<path id="path5381-3" class="s5" d="m24.3 14.83q-2.46 0-4.84 0.6-2.39 0.61-4.55 1.77-2.17 1.17-3.99 2.82-1.82 1.66-3.18 3.72-0.03 0.16-0.04 0.33-0.02 0.16-0.03 0.33-0.01 0.16-0.02 0.33 0 0.17 0 0.33c0 1.57 0.33 3.12 0.99 4.56 0.65 1.45 1.61 2.76 2.82 3.87 1.21 1.11 2.65 1.99 4.23 2.58 1.58 0.6 3.27 0.91 4.99 0.91 1.71 0 3.4-0.31 4.98-0.91 1.58-0.59 3.02-1.47 4.23-2.58 1.21-1.11 2.16-2.42 2.82-3.87 0.65-1.44 0.99-2.99 0.99-4.56q0-1.46-0.39-2.88-0.39-1.42-1.14-2.71-0.75-1.29-1.82-2.38-1.07-1.09-2.39-1.91-0.46-0.08-0.91-0.15-0.46-0.06-0.91-0.11-0.46-0.04-0.92-0.07-0.46-0.02-0.92-0.02z"/>
		<path id="path5137-8" fill-rule="evenodd" class="s6" d="m28.37 22.96c-27.62-7.11-25.85 32.41 1.06 25.38-25.68-0.29-23.19-26.82-1.06-25.38z"/>
		<path id="path4955" fill-rule="evenodd" class="s7" d="m22.92 52.59c13.14 1.35 26.21-13.25 15.68-30.04 4.27 11.66-2.6 28.13-15.68 30.04z"/>
		<path id="path4955-4" fill-rule="evenodd" class="s8" d="m11.47 21.08c-7.21 7.5-9.59 17.63 0.97 27.42-5.04-8.25-5.93-18.61-0.97-27.42z"/>
		<path id="path4955-4-7" fill-rule="evenodd" class="s8" d="m32.3 17.32c-4-1.95-14.91-3.15-19 3.12 5.48-4.28 12.27-3.76 19-3.12z"/>
		<path id="path3817-0" class="s9" d="m30.68 26.38c-0.12 0.01-12.22-2.99-12.28 7.34-0.29 9.78 11.19 6.57 12.48 5.93l1.55 5c1 0.66-12.1 4.85-18.02-1.34-2.26-2.47-3.51-5.2-3.51-9.58 0-4.43 0.91-6.85 3.18-9.31 5.73-6.62 18.09-3.92 17.83-3.08z"/>
		<path id="path5137" fill-rule="evenodd" class="s10" d="m31.61 21.71c-26.33-7.08-26.11 31.45-0.75 23.04-24.82 0.19-20.69-24.08 0.75-23.04z"/>
		<path id="path10796-2-6-2-2" fill-rule="evenodd" class="s11" d="m24.42 54.5c-11.02 0-19.92-8.94-19.92-20 0-11.06 8.9-20 19.92-20 11.02 0 19.93 8.94 19.93 20 0 11.06-8.91 20-19.93 20z"/>
	</g>
</svg>