<?xml version="1.0" encoding="UTF-8" standalone="no"?>
<!-- Created with Inkscape (http://www.inkscape.org/) -->

<svg
   width="75"
   height="66"
   id="svg2"
   version="1.1"
   xml:space="preserve"
   xmlns:xlink="http://www.w3.org/1999/xlink"
   xmlns="http://www.w3.org/2000/svg"
   xmlns:svg="http://www.w3.org/2000/svg"
   xmlns:rdf="http://www.w3.org/1999/02/22-rdf-syntax-ns#"
   xmlns:cc="http://creativecommons.org/ns#"
   xmlns:dc="http://purl.org/dc/elements/1.1/"><defs
     id="defs4"><linearGradient
       xlink:href="#linearGradient4972-7"
       id="linearGradient4978"
       x1="88.220116"
       y1="1032.2668"
       x2="163.22012"
       y2="1032.2668"
       gradientUnits="userSpaceOnUse"
       gradientTransform="translate(-88.220116,-999.2669)" /><linearGradient
       id="linearGradient4972-7"><stop
         style="stop-color:#b8ccf1;stop-opacity:0.10196079"
         offset="0"
         id="stop4974-8" /><stop
         style="stop-color:#6e97e2;stop-opacity:0.10196079"
         offset="1"
         id="stop4976-1" /></linearGradient><linearGradient
       xlink:href="#linearGradient4964-3"
       id="linearGradient4970"
       x1="118.38584"
       y1="1032.1835"
       x2="163.22012"
       y2="1032.2668"
       gradientUnits="userSpaceOnUse"
       gradientTransform="translate(-88.220117,-999.2669)" /><linearGradient
       id="linearGradient4964-3"><stop
         style="stop-color:#ffffff;stop-opacity:0.349"
         offset="0"
         id="stop4966-1" /><stop
         style="stop-color:#91ade6;stop-opacity:1"
         offset="1"
         id="stop4968-1" /></linearGradient><linearGradient
       xlink:href="#linearGradient4956-2"
       id="linearGradient4962"
       x1="88.220116"
       y1="1042.7972"
       x2="163.22012"
       y2="1042.7972"
       gradientUnits="userSpaceOnUse"
       gradientTransform="translate(-88.220116,-999.2669)" /><linearGradient
       id="linearGradient4956-2"><stop
         style="stop-color:#fcfdfe;stop-opacity:0.25641027"
         offset="0"
         id="stop4958-5" /><stop
         style="stop-color:#98aae7;stop-opacity:0.40392157"
         offset="1"
         id="stop4960-6" /></linearGradient><linearGradient
       xlink:href="#linearGradient4994"
       id="linearGradient6375-6"
       x1="50.702839"
       y1="1052.4476"
       x2="22.530088"
       y2="1014.1386"
       gradientUnits="userSpaceOnUse"
       gradientTransform="matrix(0.66235895,0,0,0.70707433,29.627095,294.05583)" /><linearGradient
       id="linearGradient4994"><stop
         id="stop4996"
         offset="0"
         style="stop-color:#ffffff;stop-opacity:1" /><stop
         id="stop4998"
         offset="1"
         style="stop-color:#dbe2eb;stop-opacity:1" /></linearGradient><linearGradient
       xlink:href="#linearGradient4902"
       id="linearGradient4238"
       gradientUnits="userSpaceOnUse"
       gradientTransform="matrix(2.2925445,0,0,2.4122725,29.437511,-1497.4569)"
       x1="10.544736"
       y1="1038.5779"
       x2="10.544736"
       y2="1052.3228" /><linearGradient
       id="linearGradient4902"><stop
         id="stop4904"
         offset="0"
         style="stop-color:#c7b571;stop-opacity:1;" /><stop
         id="stop4906"
         offset="1"
         style="stop-color:#9a9a8f;stop-opacity:1" /></linearGradient><linearGradient
       xlink:href="#linearGradient6411"
       id="linearGradient4240"
       gradientUnits="userSpaceOnUse"
       gradientTransform="matrix(0.66235895,0,0,0.70707433,29.627095,294.05581)"
       x1="52.166088"
       y1="1020.8994"
       x2="47.429596"
       y2="1023.1616" /><linearGradient
       id="linearGradient6411"><stop
         style="stop-color:#4f605c;stop-opacity:1"
         offset="0"
         id="stop6413" /><stop
         style="stop-color:#dbe2eb;stop-opacity:0"
         offset="1"
         id="stop6415" /></linearGradient><linearGradient
       xlink:href="#linearGradient4258"
       id="linearGradient4264"
       x1="59.220116"
       y1="1021.2669"
       x2="62.220116"
       y2="1025.2668"
       gradientUnits="userSpaceOnUse"
       gradientTransform="matrix(1.1922461,0,0,1.2728781,-10.09864,-290.57342)" /><linearGradient
       id="linearGradient4258"><stop
         style="stop-color:#f4ae5f;stop-opacity:1;"
         offset="0"
         id="stop4260" /><stop
         id="stop4266"
         offset="0.41542953"
         style="stop-color:#eec290;stop-opacity:1" /><stop
         style="stop-color:#c7700e;stop-opacity:1"
         offset="1"
         id="stop4262" /></linearGradient><filter
       height="1.0954513"
       y="-0.047725668"
       width="1.0967932"
       x="-0.048396592"
       id="filter4285-9"
       style="color-interpolation-filters:sRGB"><feGaussianBlur
         id="feGaussianBlur4287-9"
         stdDeviation="0.10000000000000001" /></filter><linearGradient
       xlink:href="#linearGradient4527"
       id="linearGradient4533"
       x1="29.521629"
       y1="29.827848"
       x2="31.546745"
       y2="39.175972"
       gradientUnits="userSpaceOnUse"
       gradientTransform="translate(7.8401465,985.96231)" /><linearGradient
       id="linearGradient4527"><stop
         style="stop-color:#68b367;stop-opacity:1"
         offset="0"
         id="stop4529" /><stop
         style="stop-color:#5eaa6e;stop-opacity:1"
         offset="1"
         id="stop4531" /></linearGradient><linearGradient
       xlink:href="#linearGradient4578"
       id="linearGradient4584"
       x1="42.780308"
       y1="1025.5621"
       x2="40.143147"
       y2="1039.7532"
       gradientUnits="userSpaceOnUse"
       gradientTransform="translate(-0.3799698,-13.30459)" /><linearGradient
       id="linearGradient4578"><stop
         style="stop-color:#c5f0b4;stop-opacity:1"
         offset="0"
         id="stop4580" /><stop
         style="stop-color:#80c171;stop-opacity:1"
         offset="1"
         id="stop4582" /></linearGradient><filter
       style="color-interpolation-filters:sRGB"
       id="filter5097"
       x="-0.053063725"
       width="1.1061275"
       y="-0.16582764"
       height="1.3316553"><feGaussianBlur
         stdDeviation="1.1055176"
         id="feGaussianBlur5099" /></filter><filter
       style="color-interpolation-filters:sRGB"
       id="filter5047-9"
       x="-0.0787318"
       width="1.1574636"
       y="-0.07668885"
       height="1.1533777"><feGaussianBlur
         stdDeviation="0.44094492"
         id="feGaussianBlur5049-4" /></filter><filter
       style="color-interpolation-filters:sRGB"
       id="filter5047-2"
       x="-0.061442132"
       width="1.1228843"
       y="-0.049128299"
       height="1.0982566"><feGaussianBlur
         stdDeviation="0.44094492"
         id="feGaussianBlur5049-6" /></filter><filter
       style="color-interpolation-filters:sRGB"
       id="filter5221-58"
       x="-0.10833311"
       width="1.2166662"
       y="-0.070208004"
       height="1.140416"><feGaussianBlur
         stdDeviation="0.8812897"
         id="feGaussianBlur5223-4" /></filter><filter
       style="color-interpolation-filters:sRGB"
       id="filter5187-5"
       x="-0.13485992"
       width="1.2697198"
       y="-0.10453644"
       height="1.2090729"><feGaussianBlur
         stdDeviation="1.179599"
         id="feGaussianBlur5189-5" /></filter><linearGradient
       gradientTransform="matrix(0.605795,0,0,0.59637217,5.5104074,411.13002)"
       xlink:href="#linearGradient5373-5"
       id="linearGradient5379-1"
       x1="18.4132"
       y1="1003.4459"
       x2="29.930859"
       y2="1039.3618"
       gradientUnits="userSpaceOnUse" /><linearGradient
       id="linearGradient5373-5"><stop
         style="stop-color:#bef460;stop-opacity:1"
         offset="0"
         id="stop5375-9" /><stop
         style="stop-color:#68c024;stop-opacity:1"
         offset="1"
         id="stop5377-8" /></linearGradient><filter
       style="color-interpolation-filters:sRGB"
       id="filter5535"
       x="-0.50029267"
       width="2.0005853"
       y="-0.56926316"
       height="2.1385263"><feGaussianBlur
         stdDeviation="5.2543488"
         id="feGaussianBlur5537" /></filter><linearGradient
       gradientTransform="matrix(0.605795,0,0,0.59637217,-0.48959258,405.13002)"
       xlink:href="#linearGradient5373-5"
       id="linearGradient5379-1-6"
       x1="18.4132"
       y1="1003.4459"
       x2="29.930859"
       y2="1039.3618"
       gradientUnits="userSpaceOnUse" /><filter
       style="color-interpolation-filters:sRGB"
       id="filter5187-5-2"
       x="-0.13485992"
       width="1.2697198"
       y="-0.10453644"
       height="1.2090729"><feGaussianBlur
         stdDeviation="1.179599"
         id="feGaussianBlur5189-5-3" /></filter><filter
       style="color-interpolation-filters:sRGB"
       id="filter5221-58-3"
       x="-0.10833311"
       width="1.2166662"
       y="-0.070208004"
       height="1.140416"><feGaussianBlur
         stdDeviation="0.8812897"
         id="feGaussianBlur5223-4-7" /></filter><filter
       style="color-interpolation-filters:sRGB"
       id="filter5047-2-2"
       x="-0.061442132"
       width="1.1228843"
       y="-0.049128299"
       height="1.0982566"><feGaussianBlur
         stdDeviation="0.44094492"
         id="feGaussianBlur5049-6-9" /></filter><filter
       style="color-interpolation-filters:sRGB"
       id="filter5047-9-0"
       x="-0.0787318"
       width="1.1574636"
       y="-0.07668885"
       height="1.1533777"><feGaussianBlur
         stdDeviation="0.44094492"
         id="feGaussianBlur5049-4-6" /></filter><filter
       style="color-interpolation-filters:sRGB"
       id="filter5187-6"
       x="-0.14330008"
       width="1.2866002"
       y="-0.11269677"
       height="1.2253935"><feGaussianBlur
         stdDeviation="1.179599"
         id="feGaussianBlur5189-2" /></filter><filter
       style="color-interpolation-filters:sRGB"
       id="filter5535-7"
       x="-0.50514024"
       width="2.0102805"
       y="-0.56926316"
       height="2.1385263"><feGaussianBlur
         stdDeviation="5.2543488"
         id="feGaussianBlur5537-2" /></filter><linearGradient
       xlink:href="#linearGradient4308"
       id="linearGradient5081"
       x1="49.402184"
       y1="1027.8296"
       x2="106.16344"
       y2="1027.8296"
       gradientUnits="userSpaceOnUse" /><linearGradient
       id="linearGradient4308"><stop
         style="stop-color:#d5d2d9;stop-opacity:1"
         offset="0"
         id="stop4310" /><stop
         style="stop-color:#ffffff;stop-opacity:0.328"
         offset="1"
         id="stop4312" /></linearGradient><filter
       style="color-interpolation-filters:sRGB"
       id="filter14595-9"
       x="-0.33165723"
       width="1.6633145"
       y="-0.33165713"
       height="1.6633143"><feGaussianBlur
         stdDeviation="4.7158049"
         id="feGaussianBlur14597-3" /></filter><filter
       style="color-interpolation-filters:sRGB"
       id="filter14595"
       x="-0.33165723"
       width="1.6633145"
       y="-0.33165713"
       height="1.6633143"><feGaussianBlur
         stdDeviation="4.7158049"
         id="feGaussianBlur14597" /></filter><linearGradient
       xlink:href="#linearGradient4308"
       id="linearGradient6406"
       gradientUnits="userSpaceOnUse"
       x1="49.217129"
       y1="1041.0833"
       x2="75.020309"
       y2="1023.2908" /><filter
       style="color-interpolation-filters:sRGB"
       id="filter4344"
       x="-0.027383926"
       width="1.0547679"
       y="-0.085576576"
       height="1.1711532"><feGaussianBlur
         stdDeviation="0.57051052"
         id="feGaussianBlur4346" /></filter><linearGradient
       xlink:href="#linearGradient4308"
       id="linearGradient5162"
       gradientUnits="userSpaceOnUse"
       x1="49.402184"
       y1="1027.8296"
       x2="106.16344"
       y2="1027.8296" /></defs><metadata
     id="metadata7"><rdf:RDF><cc:Work
         rdf:about=""><dc:format>image/svg+xml</dc:format><dc:type
           rdf:resource="http://purl.org/dc/dcmitype/StillImage" /><dc:title /></cc:Work></rdf:RDF></metadata><g
     id="layer2"
     style="display:inline"><path
       id="rect4113-1"
       d="M 75,0 75,66 1e-6,66 C 1e-6,41.2048 50.00969,0 75,0 Z"
       style="display:inline;fill:url(#linearGradient4978);fill-opacity:1;stroke:none" /><path
       id="rect4113-1-0"
       d="M 75,21.0607 75,66 1e-6,66 C 10.625001,47.804 43.509694,25.4357 75,21.0607 Z"
       style="display:inline;opacity:0.40400002;fill:url(#linearGradient4962);fill-opacity:1;stroke:none" /><g
       id="g11331-3-1-1-7"
       style="display:inline"
       transform="matrix(0.27903303,0,0,0.27903303,-14.618136,-107.52874)"><g
         style="fill:#737986;fill-opacity:1;stroke:#595e68;stroke-opacity:1"
         id="g13408-8-2" /></g><path
       id="rect4113-1-7"
       d="M 75,4.0000001e-7 75,66 30.000003,66 C 30.000003,46.1545 47.70944,9.2500004 75,4e-7 Z"
       style="display:inline;opacity:0.18399999;fill:url(#linearGradient4970);fill-opacity:1;stroke:none" /></g><g
     id="layer1"
     style="display:inline"
     transform="translate(0,-986.3622)"><path
       id="rect4001-3-4-5-3"
       d="m 61.725004,1022.8099 21.27431,-0.1009 1.654984,3.7793 -20.678174,12.1198 -29.322882,0.1009 z"
       style="display:inline;opacity:0.62999998;fill:url(#linearGradient6406);fill-opacity:1;stroke:none;filter:url(#filter4344)"
       transform="matrix(0.74942226,0,0,0.66945086,16.056217,346.08094)" /><path
       transform="matrix(0.50077426,0,0,0.064328,-14.548719,973.64608)"
       id="rect7477-1"
       d="m 70.470226,1010.7669 14.625168,0 c 5.401561,0 9.750111,4.3486 9.750111,9.7501 l 0,14.6252 c 0,5.4015 -4.34855,9.7501 -9.750111,9.7501 l -14.625168,0 c -5.401561,0 -9.75011,-4.3486 -9.75011,-9.7501 l 0,-14.6252 c 0,-5.4015 4.348549,-9.7501 9.75011,-9.7501 z"
       style="display:inline;opacity:1;fill:url(#linearGradient5162);fill-opacity:1;stroke:none;stroke-width:3;stroke-linecap:butt;stroke-linejoin:round;stroke-miterlimit:4;stroke-dasharray:none;stroke-dashoffset:0;stroke-opacity:1;filter:url(#filter14595)" /><path
       transform="matrix(0.50077426,0,0,0.064328,-23.548719,970.64608)"
       id="rect7477-1-2"
       d="m 70.470226,1010.7669 14.625168,0 c 5.401561,0 9.750111,4.3486 9.750111,9.7501 l 0,14.6252 c 0,5.4015 -4.34855,9.7501 -9.750111,9.7501 l -14.625168,0 c -5.401561,0 -9.75011,-4.3486 -9.75011,-9.7501 l 0,-14.6252 c 0,-5.4015 4.348549,-9.7501 9.75011,-9.7501 z"
       style="display:inline;opacity:1;fill:url(#linearGradient5081);fill-opacity:1;stroke:none;stroke-width:3;stroke-linecap:butt;stroke-linejoin:round;stroke-miterlimit:4;stroke-dasharray:none;stroke-dashoffset:0;stroke-opacity:1;filter:url(#filter14595-9)" /><ellipse
       cy="1013.9438"
       cx="14.305147"
       style="font-style:normal;font-weight:normal;font-size:medium;line-height:125%;font-family:Sans;letter-spacing:0px;word-spacing:0px;display:inline;fill:url(#linearGradient5379-1-6);fill-opacity:1;stroke:none;stroke-width:1.5;stroke-linecap:round;stroke-linejoin:round;stroke-miterlimit:4;stroke-dasharray:none;stroke-dashoffset:0;stroke-opacity:1"
       id="path10796-2-6-2-5-5"
       rx="12.070574"
       ry="11.925551" /><path
       style="display:inline;fill:#5da720;fill-opacity:1;fill-rule:evenodd;stroke:none;stroke-width:1px;stroke-linecap:butt;stroke-linejoin:miter;stroke-opacity:1;filter:url(#filter5187-5-2)"
       d="m 122.37229,979.3232 c -27.626132,-7.10861 -25.855298,32.4111 1.05506,25.3802 -25.678725,-0.2955 -23.18339,-26.8179 -1.05506,-25.3802 z"
       id="path5137-8-4"
       transform="matrix(0.605795,0,0,0.59637217,-57.434325,423.02119)" /><path
       style="display:inline;fill:#3c8b11;fill-opacity:1;fill-rule:evenodd;stroke:none;stroke-width:1px;stroke-linecap:butt;stroke-linejoin:miter;stroke-opacity:1;filter:url(#filter5221-58-3)"
       d="m 116.9183,1008.9542 c 13.13898,1.3446 26.21595,-13.2506 15.6794,-30.04 4.27013,11.66 -2.59673,28.1272 -15.6794,30.04 z"
       id="path4955-1-7"
       transform="matrix(0.605795,0,0,0.59637217,-57.434325,423.02119)" /><path
       style="display:inline;fill:#9bed38;fill-opacity:1;fill-rule:evenodd;stroke:none;stroke-width:1px;stroke-linecap:butt;stroke-linejoin:miter;stroke-opacity:1;filter:url(#filter5047-2-2)"
       d="m 42.016424,1063.8653 c 10.35108,-1.0571 18.719697,-7.243 16.998227,-21.5409 -1.492,9.5512 -7.513167,18.0332 -16.998227,21.5409 z"
       id="path4955-4-74-1"
       transform="matrix(-0.46195673,0.38580163,-0.39189739,-0.45477123,442.79406,1473.5439)" /><path
       style="display:inline;fill:#bcee73;fill-opacity:1;fill-rule:evenodd;stroke:none;stroke-width:1px;stroke-linecap:butt;stroke-linejoin:miter;stroke-opacity:1;filter:url(#filter5047-9-0)"
       d="m 45.362135,1063.2149 c 4.386725,-0.8085 13.867651,-6.3281 13.426551,-13.7995 -1.860415,6.6958 -7.631082,10.3187 -13.426551,13.7995 z"
       id="path4955-4-7-6"
       transform="matrix(-0.4871928,-0.35444244,0.36004272,-0.47961477,-341.62293,1529.7119)" /><path
       style="display:inline;fill:#d7f1c6;fill-opacity:1;fill-rule:evenodd;stroke:none;stroke-width:1px;stroke-linecap:butt;stroke-linejoin:miter;stroke-opacity:1;filter:url(#filter5187-6)"
       d="m 125.60526,978.0715 c -26.329149,-7.08211 -26.104363,31.4552 -0.74363,23.0376 -24.81705,0.1969 -20.69486,-24.08121 0.74363,-23.0376 z"
       id="path5137-5"
       transform="matrix(0.605795,0,0,0.59637217,-57.434325,423.02119)" /><ellipse
       cy="1013.9438"
       cx="14.305147"
       style="font-style:normal;font-weight:normal;font-size:medium;line-height:125%;font-family:Sans;letter-spacing:0px;word-spacing:0px;display:inline;fill:none;fill-opacity:1;stroke:#657a32;stroke-width:1.25;stroke-linecap:round;stroke-linejoin:round;stroke-miterlimit:4;stroke-dasharray:none;stroke-dashoffset:0;stroke-opacity:1"
       id="path10796-2-6-2-2-7-1"
       rx="12.070574"
       ry="11.925551" /><path
       style="display:inline;opacity:1;fill:#ffffff;fill-opacity:1;stroke:none;stroke-width:1.5;stroke-linecap:round;stroke-linejoin:miter;stroke-miterlimit:4;stroke-dasharray:none;stroke-dashoffset:0;stroke-opacity:1;filter:url(#filter5535-7)"
       d="m 121.26475,978.59959 c -6.65797,0.004 -11.30147,3.83754 -14.99412,9.39759 -0.0562,0.44022 -0.56935,1.49726 -0.57168,1.94048 -8e-5,6.58347 4.74413,10.81464 11.93884,10.81414 7.19394,-5e-4 13.02547,-5.33708 13.02539,-11.91985 -0.002,-3.96183 -2.15423,-7.66404 -5.74414,-9.87886 -1.20466,-0.23044 -2.42796,-0.34878 -3.65429,-0.3535 z"
       id="path5381-3-0"
       transform="matrix(0.605795,0,0,0.59637217,-59.73314,420.27312)" /><ellipse
       cy="1019.9438"
       cx="20.305147"
       style="font-style:normal;font-weight:normal;font-size:medium;line-height:125%;font-family:Sans;letter-spacing:0px;word-spacing:0px;display:inline;fill:url(#linearGradient5379-1);fill-opacity:1;stroke:none;stroke-width:1.5;stroke-linecap:round;stroke-linejoin:round;stroke-miterlimit:4;stroke-dasharray:none;stroke-dashoffset:0;stroke-opacity:1"
       id="path10796-2-6-2-5"
       rx="12.070574"
       ry="11.925551" /><path
       style="display:inline;fill:#5da720;fill-opacity:1;fill-rule:evenodd;stroke:none;stroke-width:1px;stroke-linecap:butt;stroke-linejoin:miter;stroke-opacity:1;filter:url(#filter5187-5)"
       d="m 122.37229,979.3232 c -27.626132,-7.10861 -25.855298,32.4111 1.05506,25.3802 -25.678725,-0.2955 -23.18339,-26.8179 -1.05506,-25.3802 z"
       id="path5137-8"
       transform="matrix(0.605795,0,0,0.59637217,-51.434325,429.02119)" /><path
       style="display:inline;fill:#3c8b11;fill-opacity:1;fill-rule:evenodd;stroke:none;stroke-width:1px;stroke-linecap:butt;stroke-linejoin:miter;stroke-opacity:1;filter:url(#filter5221-58)"
       d="m 116.9183,1008.9542 c 13.13898,1.3446 26.21595,-13.2506 15.6794,-30.04 4.27013,11.66 -2.59673,28.1272 -15.6794,30.04 z"
       id="path4955-1"
       transform="matrix(0.605795,0,0,0.59637217,-51.434325,429.02119)" /><path
       style="display:inline;fill:#9bed38;fill-opacity:1;fill-rule:evenodd;stroke:none;stroke-width:1px;stroke-linecap:butt;stroke-linejoin:miter;stroke-opacity:1;filter:url(#filter5047-2)"
       d="m 42.016424,1063.8653 c 10.35108,-1.0571 18.719697,-7.243 16.998227,-21.5409 -1.492,9.5512 -7.513167,18.0332 -16.998227,21.5409 z"
       id="path4955-4-74"
       transform="matrix(-0.46195673,0.38580163,-0.39189739,-0.45477123,448.79406,1479.5439)" /><path
       style="display:inline;fill:#bcee73;fill-opacity:1;fill-rule:evenodd;stroke:none;stroke-width:1px;stroke-linecap:butt;stroke-linejoin:miter;stroke-opacity:1;filter:url(#filter5047-9)"
       d="m 45.362135,1063.2149 c 4.386725,-0.8085 13.867651,-6.3281 13.426551,-13.7995 -1.860415,6.6958 -7.631082,10.3187 -13.426551,13.7995 z"
       id="path4955-4-7"
       transform="matrix(-0.4871928,-0.35444244,0.36004272,-0.47961477,-335.62293,1535.7119)" /><ellipse
       cy="1019.9438"
       cx="20.305147"
       style="font-style:normal;font-weight:normal;font-size:medium;line-height:125%;font-family:Sans;letter-spacing:0px;word-spacing:0px;display:inline;fill:none;fill-opacity:1;stroke:#657a32;stroke-width:1.25;stroke-linecap:round;stroke-linejoin:round;stroke-miterlimit:4;stroke-dasharray:none;stroke-dashoffset:0;stroke-opacity:1"
       id="path10796-2-6-2-2-7"
       rx="12.070574"
       ry="11.925551" /><path
       style="display:inline;opacity:1;fill:#ffffff;fill-opacity:1;stroke:none;stroke-width:1.5;stroke-linecap:round;stroke-linejoin:miter;stroke-miterlimit:4;stroke-dasharray:none;stroke-dashoffset:0;stroke-opacity:1;filter:url(#filter5535)"
       d="m 121.26475,978.59959 c -6.65797,0.004 -11.78525,4.08326 -15.4779,9.6433 -0.0562,0.44023 0.36675,1.95873 -0.32979,1.3262 -8e-5,6.58347 4.98602,11.18321 12.18073,11.18271 7.19394,-5e-4 13.02547,-5.33708 13.02539,-11.91985 -0.002,-3.96183 -2.15423,-7.66404 -5.74414,-9.87886 -1.20466,-0.23044 -2.42796,-0.34878 -3.65429,-0.3535 z"
       id="path5381-3"
       transform="matrix(0.605795,0,0,0.59637217,-53.794443,426.27312)" /><path
       id="rect4001-3-4-5"
       d="m 61.725004,1022.8099 21.27431,-0.1009 1.654984,3.7793 -20.678174,12.1198 -29.322882,0.1009 z"
       style="display:inline;opacity:0.28999999;fill:#ffffff;fill-opacity:0.30395138;stroke:none;filter:url(#filter5097)"
       transform="matrix(0.81385308,0,0,0.61823795,16.944487,397.55254)" /><g
       id="g6194"
       transform="translate(0.459724,0.2357)"><path
         style="display:inline;fill:url(#linearGradient6375-6);fill-opacity:1;stroke:none"
         d="m 42,1008.5848 16.29082,-0.1952 6.27458,7.3158 0.0609,23.4616 -22.504471,0.1952 z"
         id="rect4001-3-4" /><path
         style="fill:none;stroke:url(#linearGradient4238);stroke-width:1;stroke-linecap:butt;stroke-linejoin:miter;stroke-miterlimit:4;stroke-dashoffset:0;stroke-opacity:1"
         d="m 42.040276,1008.6618 16.069976,0 c 0,0 4.831789,1.013 3.606431,3.347 -0.038,0.073 3.323597,3.9796 3.323597,3.9796 l 0,23.6381 -23.000004,0 z"
         id="rect4001-1" /><path
         style="display:inline;fill:url(#linearGradient4240);fill-opacity:1;stroke:none"
         d="m 58.29082,1008.6404 6.24946,7.1305 0,7.4102 -9.171466,-6.482 c 1.202872,-2.5994 2.07431,-5.3145 2.921956,-8.0587 z"
         id="rect4001-3-9-0" /><path
         style="display:inline;fill:url(#linearGradient4264);fill-opacity:1;fill-rule:evenodd;stroke:none;stroke-width:1px;stroke-linecap:butt;stroke-linejoin:miter;stroke-opacity:1"
         d="m 58.123726,1008.1339 c 1.348521,1.8713 2.974695,4.2652 1.769413,8.3553 2.773472,-1.598 5.647141,-0.7504 5.647141,-0.7504 0,-3.8185 -4.550947,-7.7849 -7.416554,-7.6049 z"
         id="path5675-4" /><path
         transform="matrix(0,0.69810267,-0.69299598,0,783.20728,1008.8838)"
         d="m 2.2999628,1043.3702 1.9823895,-2.1047 -1.6734053,-2.5419 2.1987064,2.0209 2.4513363,-1.6427 -2.0383649,2.1623 1.7419712,2.4882 -2.2030799,-2.0431 z"
         id="path4252-6"
         style="display:inline;opacity:0.9;fill:#ffffff;fill-opacity:0.81584156;stroke:none;stroke-width:0;stroke-miterlimit:4;stroke-dasharray:none;filter:url(#filter4285-9)" /><path
         id="path4696"
         d="m 44.54028,1036.1432 8,0"
         style="fill:none;fill-rule:evenodd;stroke:#bbc5d8;stroke-width:2;stroke-linecap:butt;stroke-linejoin:miter;stroke-miterlimit:4;stroke-dasharray:none;stroke-opacity:1" /><path
         id="path4696-5"
         d="m 44.54028,1033.1432 11,0"
         style="display:inline;fill:none;fill-rule:evenodd;stroke:#bbc5d8;stroke-width:2;stroke-linecap:butt;stroke-linejoin:miter;stroke-miterlimit:4;stroke-dasharray:none;stroke-opacity:1" /><path
         id="path4696-4"
         d="m 44.54028,1030.1432 12,0"
         style="display:inline;fill:none;fill-rule:evenodd;stroke:#bbc5d8;stroke-width:2;stroke-linecap:butt;stroke-linejoin:miter;stroke-miterlimit:4;stroke-dasharray:none;stroke-opacity:1" /><path
         id="path4696-0"
         d="m 44.54028,1016.1432 11,0"
         style="display:inline;fill:none;fill-rule:evenodd;stroke:#bbc5d8;stroke-width:2;stroke-linecap:butt;stroke-linejoin:miter;stroke-miterlimit:4;stroke-dasharray:none;stroke-opacity:1" /><path
         id="path4696-9"
         d="m 44.54028,1019.1432 11,0"
         style="display:inline;fill:none;fill-rule:evenodd;stroke:#bbc5d8;stroke-width:2;stroke-linecap:butt;stroke-linejoin:miter;stroke-miterlimit:4;stroke-dasharray:none;stroke-opacity:1" /><path
         id="path4696-8"
         d="m 44.54028,1022.1432 11,0"
         style="display:inline;fill:none;fill-rule:evenodd;stroke:#bbc5d8;stroke-width:2;stroke-linecap:butt;stroke-linejoin:miter;stroke-miterlimit:4;stroke-dasharray:none;stroke-opacity:1" /><path
         id="path4696-2"
         d="m 44.54028,1025.1432 9,0"
         style="display:inline;fill:none;fill-rule:evenodd;stroke:#bbc5d8;stroke-width:2;stroke-linecap:butt;stroke-linejoin:miter;stroke-miterlimit:4;stroke-dasharray:none;stroke-opacity:1" /></g><g
       id="g4347"><path
         style="fill:url(#linearGradient4533);fill-opacity:1;fill-rule:evenodd;stroke:#398a43;stroke-width:1px;stroke-linecap:butt;stroke-linejoin:miter;stroke-opacity:1"
         d="m 48.505033,1012.9318 c -0.24182,-0.7378 -4.276215,4.6418 -4.276215,4.6418 -11.44876,-7.9356 -17.573348,1.4122 -16.632852,8.3285 0.287455,2.114 2.873263,-9.5491 13.24418,-4.9398 0,0 -6.161054,4.0913 -5.456972,5.1523 0.390532,0.5886 13.008987,0.7195 13.731155,-0.03 0.722169,-0.75 -0.343071,-12.3401 -0.609296,-13.1524 z"
         id="path4522" /><path
         style="display:inline;fill:none;fill-opacity:1;fill-rule:evenodd;stroke:url(#linearGradient4584);stroke-width:1px;stroke-linecap:butt;stroke-linejoin:miter;stroke-opacity:1"
         d="m 48.289956,1025.8745 c 0.335464,-3.4409 -0.540551,-10.8513 -0.558812,-11.097 -0.130143,0.1351 -3.305251,4.1177 -3.305251,4.1177 -13.489832,-9.4517 -15.979945,3.8837 -15.944315,4.5632 0,0 4.159907,-8.1407 14.425918,-2.5964 -3.722931,2.2 -6.36447,4.7334 -6.416153,4.8694"
         id="path4522-3" /></g></g></svg>
