<?xml version="1.0" encoding="UTF-8" standalone="no"?>
<!-- Created with Inkscape (http://www.inkscape.org/) -->

<svg
   width="16"
   height="16"
   id="svg2"
   version="1.1"
   xmlns:xlink="http://www.w3.org/1999/xlink"
   xmlns="http://www.w3.org/2000/svg"
   xmlns:svg="http://www.w3.org/2000/svg"
   xmlns:rdf="http://www.w3.org/1999/02/22-rdf-syntax-ns#"
   xmlns:cc="http://creativecommons.org/ns#"
   xmlns:dc="http://purl.org/dc/elements/1.1/">
  <defs
     id="defs4">
    <linearGradient
       xlink:href="#linearGradient10798-1-9-3-7-6-6-6-2-6-7-5"
       id="linearGradient6266-97"
       gradientUnits="userSpaceOnUse"
       x1="388.63736"
       y1="478.18777"
       x2="388.63736"
       y2="457.95499" />
    <linearGradient
       id="linearGradient10798-1-9-3-7-6-6-6-2-6-7-5">
      <stop
         style="stop-color:#5aad60;stop-opacity:1;"
         offset="0"
         id="stop10800-5-2-1-8-20-4-0-2-1-9-4" />
      <stop
         id="stop10806-6-8-5-3-9-2-2-7-0-4-2"
         offset="0.5"
         style="stop-color:#5bb26a;stop-opacity:1;" />
      <stop
         style="stop-color:#a4c589;stop-opacity:1"
         offset="1"
         id="stop10802-1-5-3-0-4-6-8-5-5-6-24" />
    </linearGradient>
    <linearGradient
       xlink:href="#linearGradient10798-1-9-3-7-6-6-6-2-6-7-9"
       id="linearGradient6266-6"
       gradientUnits="userSpaceOnUse"
       x1="388.63736"
       y1="478.18777"
       x2="388.63736"
       y2="457.95499" />
    <linearGradient
       id="linearGradient10798-1-9-3-7-6-6-6-2-6-7-9">
      <stop
         style="stop-color:#5aad60;stop-opacity:1;"
         offset="0"
         id="stop10800-5-2-1-8-20-4-0-2-1-9-0" />
      <stop
         id="stop10806-6-8-5-3-9-2-2-7-0-4-4"
         offset="0.5"
         style="stop-color:#5bb26a;stop-opacity:1;" />
      <stop
         style="stop-color:#a4c589;stop-opacity:1"
         offset="1"
         id="stop10802-1-5-3-0-4-6-8-5-5-6-9" />
    </linearGradient>
    <linearGradient
       xlink:href="#linearGradient10798-1-9-3-7-6-6-6-2-6-7"
       id="linearGradient6266"
       gradientUnits="userSpaceOnUse"
       x1="388.63736"
       y1="478.18777"
       x2="388.63736"
       y2="457.95499" />
    <linearGradient
       id="linearGradient10798-1-9-3-7-6-6-6-2-6-7">
      <stop
         style="stop-color:#5aad60;stop-opacity:1;"
         offset="0"
         id="stop10800-5-2-1-8-20-4-0-2-1-9" />
      <stop
         id="stop10806-6-8-5-3-9-2-2-7-0-4"
         offset="0.5"
         style="stop-color:#5bb26a;stop-opacity:1;" />
      <stop
         style="stop-color:#a4c589;stop-opacity:1"
         offset="1"
         id="stop10802-1-5-3-0-4-6-8-5-5-6" />
    </linearGradient>
  </defs>
  <metadata
     id="metadata7">
    <rdf:RDF>
      <cc:Work
         rdf:about="">
        <dc:format>image/svg+xml</dc:format>
        <dc:type
           rdf:resource="http://purl.org/dc/dcmitype/StillImage" />
        <dc:title />
      </cc:Work>
    </rdf:RDF>
  </metadata>
  <g
     id="layer1"
     style="display:inline"
     transform="translate(0,-1036.3622)">
    <g
       transform="matrix(0.27903303,0,0,0.27903303,-100.53208,912.07901)"
       style="display:inline"
       id="g11331-3-1-1">
      <g
         id="g13408-8"
         style="fill:#737986;fill-opacity:1;stroke:#595e68;stroke-opacity:1" />
    </g>
    <g
       transform="matrix(0.27903303,0,0,0.27903303,-100.53208,912.07901)"
       style="display:inline"
       id="g4803">
      <path
         id="path4012"
         transform="matrix(3.5838051,0,0,3.5838051,360.28738,445.40673)"
         d="m 8.9375,2 0,1.9375 -3.09375,0 0,4.0625 -1.28125,0 0.03125,0.96875 1.25,0 0,4.0625 3.09375,0 0,2.03125 2.59375,-2.59375 -2.59375,-2.4375 0,1.9375 -1.96875,0 0,-6.96875 1.96875,0 0,2.03125 2.59375,-2.625 L 8.9375,2 z"
         style="fill:#6f7684;fill-opacity:1;stroke:none" />
      <g
         transform="matrix(3.5838051,0,0,3.5838051,339.23806,-3233.4625)"
         style="display:inline"
         id="g6124-3-4-9-7">
        <path
           style="opacity:0.46218489;color:#000000;fill:#ffffff;fill-opacity:1;fill-rule:nonzero;stroke:none;stroke-width:0.5;marker:none;visibility:visible;display:inline;overflow:visible;enable-background:accumulate"
           id="path6115-5-5-9-0"
           d="m 14.75,3.140625 c 0,0.3538074 -0.664577,0.640625 -1.484375,0.640625 -0.819798,0 -1.484375,-0.2868176 -1.484375,-0.640625 C 11.78125,2.7868176 12.445827,2.5 13.265625,2.5 14.085423,2.5 14.75,2.7868176 14.75,3.140625 z"
           transform="matrix(0.8105263,0,0,1,2.5447359,1036.4247)" />
        <g
           style="display:inline"
           id="g6124"
           transform="translate(5.7965713,-9.8362033)">
          <path
             style="fill:url(#linearGradient6266);fill-opacity:1;stroke:#14733c;stroke-width:4.55839109;stroke-linecap:round;stroke-linejoin:round;stroke-miterlimit:4;stroke-opacity:1;stroke-dasharray:none;stroke-dashoffset:0;display:inline"
             id="path10796-2-6-3-8"
             d="m 398.75,468.23718 c 0,5.86803 -4.75697,10.625 -10.625,10.625 -5.86803,0 -10.625,-4.75697 -10.625,-10.625 0,-5.86802 4.75697,-10.625 10.625,-10.625 5.86803,0 10.625,4.75698 10.625,10.625 z"
             transform="matrix(0.19771052,0,0,0.19623993,-63.175437,948.96728)" />
          <path
             style="opacity:0.46218489;color:#000000;fill:#ffffff;fill-opacity:1;fill-rule:nonzero;stroke:none;stroke-width:0.5;marker:none;visibility:visible;display:inline;overflow:visible;enable-background:accumulate"
             id="path6115-3"
             d="m 14.75,3.140625 c 0,0.3538074 -0.664577,0.640625 -1.484375,0.640625 -0.819798,0 -1.484375,-0.2868176 -1.484375,-0.640625 C 11.78125,2.7868176 12.445827,2.5 13.265625,2.5 14.085423,2.5 14.75,2.7868176 14.75,3.140625 z"
             transform="matrix(0.8105263,0,0,1,2.8247471,1036.7685)" />
        </g>
        <g
           style="display:inline"
           id="g6124-8"
           transform="translate(5.7965713,-1.7737033)">
          <path
             style="fill:url(#linearGradient6266-6);fill-opacity:1;stroke:#14733c;stroke-width:4.55839109;stroke-linecap:round;stroke-linejoin:round;stroke-miterlimit:4;stroke-opacity:1;stroke-dasharray:none;stroke-dashoffset:0;display:inline"
             id="path10796-2-6-3-8-4"
             d="m 398.75,468.23718 c 0,5.86803 -4.75697,10.625 -10.625,10.625 -5.86803,0 -10.625,-4.75697 -10.625,-10.625 0,-5.86802 4.75697,-10.625 10.625,-10.625 5.86803,0 10.625,4.75698 10.625,10.625 z"
             transform="matrix(0.19771052,0,0,0.19623993,-63.175437,948.96728)" />
          <path
             style="opacity:0.46218489;color:#000000;fill:#ffffff;fill-opacity:1;fill-rule:nonzero;stroke:none;stroke-width:0.5;marker:none;visibility:visible;display:inline;overflow:visible;enable-background:accumulate"
             id="path6115-1"
             d="m 14.75,3.140625 c 0,0.3538074 -0.664577,0.640625 -1.484375,0.640625 -0.819798,0 -1.484375,-0.2868176 -1.484375,-0.640625 C 11.78125,2.7868176 12.445827,2.5 13.265625,2.5 14.085423,2.5 14.75,2.7868176 14.75,3.140625 z"
             transform="matrix(0.8105263,0,0,1,2.8247471,1036.7685)" />
        </g>
        <g
           style="display:inline"
           id="g6124-3"
           transform="matrix(0.98161488,0,0,1,-4.9225579,-5.7969033)">
          <path
             style="fill:url(#linearGradient6266-97);fill-opacity:1;stroke:#14733c;stroke-width:4.55839109;stroke-linecap:round;stroke-linejoin:round;stroke-miterlimit:4;stroke-opacity:1;stroke-dasharray:none;stroke-dashoffset:0;display:inline"
             id="path10796-2-6-3-8-2"
             d="m 398.75,468.23718 c 0,5.86803 -4.75697,10.625 -10.625,10.625 -5.86803,0 -10.625,-4.75697 -10.625,-10.625 0,-5.86802 4.75697,-10.625 10.625,-10.625 5.86803,0 10.625,4.75698 10.625,10.625 z"
             transform="matrix(0.19771052,0,0,0.19623993,-63.175437,948.96728)" />
          <path
             style="opacity:0.46218489;color:#000000;fill:#ffffff;fill-opacity:1;fill-rule:nonzero;stroke:none;stroke-width:0.5;marker:none;visibility:visible;display:inline;overflow:visible;enable-background:accumulate"
             id="path6115-2"
             d="m 14.75,3.140625 c 0,0.3538074 -0.664577,0.640625 -1.484375,0.640625 -0.819798,0 -1.484375,-0.2868176 -1.484375,-0.640625 C 11.78125,2.7868176 12.445827,2.5 13.265625,2.5 14.085423,2.5 14.75,2.7868176 14.75,3.140625 z"
             transform="matrix(0.8105263,0,0,1,2.8247471,1036.7685)" />
        </g>
      </g>
    </g>
  </g>
</svg>
