<?xml version="1.0" encoding="UTF-8" standalone="no"?>
<!-- Created with Inkscape (http://www.inkscape.org/) -->

<svg
   width="16"
   height="16"
   id="svg2"
   version="1.1"
   xmlns:xlink="http://www.w3.org/1999/xlink"
   xmlns="http://www.w3.org/2000/svg"
   xmlns:svg="http://www.w3.org/2000/svg"
   xmlns:rdf="http://www.w3.org/1999/02/22-rdf-syntax-ns#"
   xmlns:cc="http://creativecommons.org/ns#"
   xmlns:dc="http://purl.org/dc/elements/1.1/">
  <defs
     id="defs4">
    <linearGradient
       id="linearGradient6222">
      <stop
         style="stop-color:#6f7684;stop-opacity:1"
         offset="0"
         id="stop6224" />
      <stop
         style="stop-color:#4d5a5d;stop-opacity:1"
         offset="1"
         id="stop6226" />
    </linearGradient>
    <linearGradient
       id="linearGradient4749">
      <stop
         style="stop-color:#ffffee;stop-opacity:1"
         offset="0"
         id="stop4751" />
      <stop
         style="stop-color:#fad56d;stop-opacity:1"
         offset="1"
         id="stop4753" />
    </linearGradient>
    <linearGradient
       id="linearGradient4741">
      <stop
         style="stop-color:#ba7f0d;stop-opacity:1"
         offset="0"
         id="stop4743" />
      <stop
         style="stop-color:#a2660b;stop-opacity:1"
         offset="1"
         id="stop4745" />
    </linearGradient>
    <linearGradient
       xlink:href="#linearGradient4741"
       id="linearGradient4747"
       x1="11.0625"
       y1="1038.5497"
       x2="11.0625"
       y2="1047.2245"
       gradientUnits="userSpaceOnUse"
       gradientTransform="translate(0,-1.0625)" />
    <linearGradient
       xlink:href="#linearGradient4749"
       id="linearGradient4755"
       x1="4.5"
       y1="1042.047"
       x2="4.5"
       y2="1046.4902"
       gradientUnits="userSpaceOnUse"
       gradientTransform="translate(0,-1.0625)" />
    <linearGradient
       xlink:href="#linearGradient6222"
       id="linearGradient6220"
       gradientUnits="userSpaceOnUse"
       x1="4.4637756"
       y1="13.5"
       x2="7.9998932"
       y2="13.5"
       gradientTransform="matrix(0,1,-1,0,17.999946,1043.362)" />
    <mask
       maskUnits="userSpaceOnUse"
       id="mask6315">
      <path
         style="fill:#ffffff;fill-opacity:1;stroke:#ffffff;stroke-width:1;stroke-linecap:round;stroke-linejoin:round;stroke-miterlimit:4;stroke-opacity:1;stroke-dasharray:none;stroke-dashoffset:0;display:inline"
         d="m 8.5,1037.7997 0,3 -4.78125,0 c -0.667867,0 -1.21875,0.5509 -1.21875,1.2188 l 0,2.5625 c 0,0.6678 0.550883,1.2187 1.21875,1.2187 l 4.78125,0 0,3 1,0 5.5,-5.5 -5.5,-5.5 z"
         id="path6317" />
    </mask>
    <filter
       id="filter7091"
       x="-1.1317049"
       width="2.8850323"
       y="-0.2511147"
       height="1.6854706">
      <feGaussianBlur
         stdDeviation="0.5249925"
         id="feGaussianBlur7093" />
    </filter>
  </defs>
  <metadata
     id="metadata7">
    <rdf:RDF>
      <cc:Work
         rdf:about="">
        <dc:format>image/svg+xml</dc:format>
        <dc:type
           rdf:resource="http://purl.org/dc/dcmitype/StillImage" />
        <dc:title />
      </cc:Work>
    </rdf:RDF>
  </metadata>
  <g
     id="layer1"
     style="display:inline"
     transform="translate(0,-1036.3622)">
    <path
       style="fill:url(#linearGradient4755);fill-opacity:1;stroke:url(#linearGradient4747);stroke-width:1;stroke-linecap:round;stroke-linejoin:round;stroke-miterlimit:4;stroke-opacity:1;stroke-dasharray:none;stroke-dashoffset:0"
       d="m 8.5,1037.7997 0,3 -4.78125,0 c -0.667867,0 -1.21875,0.5509 -1.21875,1.2188 l 0,2.5625 c 0,0.6678 0.550883,1.2187 1.21875,1.2187 l 4.78125,0 0,3 1,0 5.5,-5.5 -5.5,-5.5 z"
       id="rect3968" />
    <g
       id="g6312"
       mask="url(#mask6315)"
       style="opacity:0.75">
      <path
         id="path4108-4"
         d="m 4.999947,1042.362 -1,0 0,6 -2,0 2.5,2.9998 0.0625,-1.7498 0.4375,-1.25 z"
         style="fill:#ffffff;fill-opacity:1;stroke:#ffffff;stroke-width:2;stroke-miterlimit:4;stroke-dasharray:none;display:inline;filter:url(#filter7091)" />
    </g>
    <path
       style="fill:url(#linearGradient6220);fill-opacity:1;stroke:none"
       d="m 4.999947,1042.362 -1,0 0,6 -2,0 2.5,2.9998 2.5,-2.9998 -2,0 z"
       id="path4108" />
  </g>
</svg>
